<svg width="155" height="154" viewBox="0 0 155 154" fill="none" xmlns="http://www.w3.org/2000/svg">
<mask id="mask0_766_2381" style="mask-type:alpha" maskUnits="userSpaceOnUse" x="0" y="0" width="155" height="154">
<rect x="0.989746" width="154" height="154" rx="20.6392" fill="white"/>
</mask>
<g mask="url(#mask0_766_2381)">
<rect x="0.989746" width="154" height="154" rx="20.6392" fill="white"/>
</g>
<path d="M124.006 91.0437C124.006 87.517 121.148 84.6592 117.626 84.6592L115.278 84.6592V85.8014C113.617 86.9527 112.534 88.8685 112.534 91.0437C112.534 93.2188 113.617 95.1347 115.278 96.286V97.4282L117.626 97.4282C121.148 97.4282 124.006 94.5704 124.006 91.0437Z" fill="url(#paint0_linear_766_2381)"/>
<path d="M115.277 97.4278C118.802 97.4278 121.66 94.5697 121.66 91.0441C121.66 87.5185 118.802 84.6604 115.277 84.6604C111.751 84.6604 108.893 87.5185 108.893 91.0441C108.893 94.5697 111.751 97.4278 115.277 97.4278Z" fill="url(#paint1_linear_766_2381)"/>
<path d="M121.658 91.0428C121.658 87.5178 118.801 84.6602 115.276 84.6602C111.751 84.6602 108.893 87.5177 108.893 91.0428C108.893 94.5678 111.751 97.4254 115.276 97.4254C113.604 97.3742 111.979 96.6651 110.849 95.4696C109.701 94.2947 109.056 92.6667 109.085 91.0428C109.11 89.4214 109.767 87.8228 110.923 86.69C112.066 85.549 113.667 84.8975 115.276 84.9091C116.885 84.8964 118.485 85.5488 119.629 86.6897C120.784 87.8228 121.443 89.421 121.467 91.0428C121.496 92.667 120.851 94.2949 119.703 95.4701C118.573 96.6655 116.948 97.3746 115.276 97.4254C118.801 97.4254 121.658 94.5679 121.658 91.0428Z" fill="url(#paint2_linear_766_2381)"/>
<path d="M49.0182 91.0437C49.0182 87.517 46.1604 84.6592 42.6382 84.6592L40.2904 84.6592L40.2904 85.8014C38.6294 86.9527 37.5464 88.8685 37.5464 91.0437C37.5464 93.2188 38.6294 95.1347 40.2904 96.286L40.2904 97.4282L42.6383 97.4282C46.1604 97.4282 49.0182 94.5704 49.0182 91.0437Z" fill="url(#paint3_linear_766_2381)"/>
<path d="M40.2873 97.4278C43.8129 97.4278 46.671 94.5697 46.671 91.0441C46.671 87.5185 43.8129 84.6604 40.2873 84.6604C36.7616 84.6604 33.9036 87.5185 33.9036 91.0441C33.9036 94.5697 36.7616 97.4278 40.2873 97.4278Z" fill="url(#paint4_linear_766_2381)"/>
<path d="M46.6708 91.0428C46.6708 87.5178 43.8132 84.6602 40.2881 84.6602C36.7631 84.6602 33.9055 87.5177 33.9055 91.0428C33.9055 94.5678 36.7631 97.4254 40.2882 97.4254C38.6161 97.3742 36.9912 96.6651 35.8613 95.4696C34.7135 94.2947 34.0687 92.6667 34.0972 91.0428C34.1224 89.4214 34.7797 87.8228 35.9353 86.69C37.0789 85.549 38.6792 84.8975 40.2881 84.9091C41.8972 84.8964 43.4976 85.5488 44.6412 86.6897C45.7963 87.8228 46.455 89.421 46.4799 91.0428C46.5084 92.667 45.8631 94.2949 44.7155 95.4701C43.5853 96.6655 41.9603 97.3746 40.2882 97.4254C43.8132 97.4254 46.6708 94.5679 46.6708 91.0428Z" fill="url(#paint5_linear_766_2381)"/>
<path d="M68.3707 91.0437C68.3707 87.517 65.5129 84.6592 61.9908 84.6592L59.6429 84.6592L59.6429 85.8014C57.982 86.9527 56.8989 88.8685 56.8989 91.0437C56.8989 93.2188 57.982 95.1347 59.643 96.286V97.4282L61.9908 97.4282C65.513 97.4282 68.3707 94.5704 68.3707 91.0437Z" fill="url(#paint6_linear_766_2381)"/>
<path d="M59.6393 97.4278C63.1649 97.4278 66.023 94.5697 66.023 91.0441C66.023 87.5185 63.1649 84.6604 59.6393 84.6604C56.1137 84.6604 53.2556 87.5185 53.2556 91.0441C53.2556 94.5697 56.1137 97.4278 59.6393 97.4278Z" fill="url(#paint7_linear_766_2381)"/>
<path d="M66.0231 91.0428C66.0231 87.5178 63.1655 84.6602 59.6404 84.6602C56.1154 84.6602 53.2578 87.5177 53.2578 91.0428C53.2578 94.5678 56.1154 97.4254 59.6405 97.4254C57.9684 97.3742 56.3435 96.6651 55.2136 95.4696C54.0658 94.2947 53.421 92.6667 53.4495 91.0428C53.4747 89.4214 54.132 87.8228 55.2876 86.69C56.4312 85.549 58.0315 84.8975 59.6404 84.9091C61.2495 84.8964 62.8499 85.5488 63.9935 86.6897C65.1486 87.8228 65.8073 89.421 65.8322 91.0428C65.8607 92.667 65.2154 94.2949 64.0678 95.4701C62.9376 96.6655 61.3126 97.3746 59.6405 97.4254C63.1655 97.4254 66.0231 94.5679 66.0231 91.0428Z" fill="url(#paint8_linear_766_2381)"/>
<path d="M139.017 84.171C138.917 82.7095 137.653 65.8515 131.814 59.3053C131.259 58.6827 130.444 58.3564 129.609 58.3564H36.5557C34.8814 58.3564 33.5239 59.7137 33.5239 61.3882L36.5557 90.2851C36.5557 91.9594 37.9132 93.3168 39.5875 93.3168H135.992C137.666 93.3168 139.023 91.9594 139.023 90.2851V84.3716C139.023 84.3046 139.021 84.2378 139.017 84.171Z" fill="url(#paint9_linear_766_2381)"/>
<path d="M134.357 63.3147H113.169C115.657 68.538 116.876 75.6715 117.426 80.1259L138.614 80.1261C138.063 75.6716 136.845 68.5379 134.357 63.3147Z" fill="url(#paint10_linear_766_2381)"/>
<path d="M131.814 59.3053C131.259 58.6827 130.444 58.3564 129.609 58.3564H36.5557C34.8814 58.3564 33.5239 59.7137 33.5239 61.3882V63.3142H134.362C133.628 61.7727 132.786 60.3944 131.814 59.3053Z" fill="url(#paint11_linear_766_2381)"/>
<path d="M106.988 49.776C106.441 49.3721 105.668 49.4885 105.264 50.0385L103.167 52.8874H24.0704L21.9731 50.0385C21.57 49.4885 20.7984 49.3713 20.2491 49.776C19.6999 50.1799 19.5827 50.9515 19.9866 51.4999L22.4532 54.8514C22.6853 55.1678 23.0546 55.3541 23.4465 55.3541H25.2917V59.6025C25.2917 60.2834 25.8441 60.8358 26.525 60.8358C27.2059 60.8358 27.7583 60.2834 27.7583 59.6025V55.3541H99.4782V59.6025C99.4782 60.2834 100.031 60.8358 100.712 60.8358C101.392 60.8358 101.945 60.2834 101.945 59.6025V55.3541H103.791C104.183 55.3541 104.552 55.1678 104.784 54.8514L107.251 51.4999C107.655 50.9515 107.537 50.1799 106.988 49.776Z" fill="url(#paint12_linear_766_2381)"/>
<path d="M117.829 84.171C117.73 82.7095 116.466 65.8515 110.627 59.3053C110.072 58.6827 109.256 58.3564 108.422 58.3564H18.3999C16.7257 58.3564 15.3682 59.7137 15.3682 61.3882V90.2851C15.3682 91.9594 16.7257 93.3168 18.3999 93.3168H114.804C116.478 93.3168 117.836 91.9594 117.836 90.2851V84.3716C117.836 84.3046 117.834 84.2378 117.829 84.171Z" fill="url(#paint13_linear_766_2381)"/>
<path d="M110.568 93.3169C110.568 89.7902 107.71 86.9324 104.188 86.9324L101.84 86.9324V88.0746C100.179 89.2259 99.0964 91.1417 99.0964 93.3168C99.0964 95.492 100.179 97.4079 101.84 98.5592V99.7014L104.188 99.7014C107.71 99.7014 110.568 96.8436 110.568 93.3169Z" fill="url(#paint14_linear_766_2381)"/>
<path d="M101.839 99.6998C105.365 99.6998 108.223 96.8417 108.223 93.3161C108.223 89.7905 105.365 86.9324 101.839 86.9324C98.3137 86.9324 95.4556 89.7905 95.4556 93.3161C95.4556 96.8417 98.3137 99.6998 101.839 99.6998Z" fill="url(#paint15_linear_766_2381)"/>
<path d="M108.221 93.317C108.221 89.7919 105.363 86.9343 101.838 86.9343C98.3129 86.9343 95.4553 89.7919 95.4553 93.3169C95.4553 96.842 98.3129 99.6996 101.838 99.6996C100.166 99.6484 98.5411 98.9393 97.4111 97.7438C96.2633 96.5689 95.6185 94.9409 95.647 93.3169C95.6722 91.6955 96.3295 90.097 97.4851 88.9642C98.6287 87.8231 100.229 87.1717 101.838 87.1833C103.447 87.1706 105.047 87.823 106.191 88.9639C107.346 90.097 108.005 91.6952 108.03 93.3169C108.058 94.9412 107.413 96.5691 106.265 97.7443C105.135 98.9397 103.51 99.6487 101.838 99.6996C105.363 99.6996 108.221 96.842 108.221 93.317Z" fill="url(#paint16_linear_766_2381)"/>
<path d="M101.838 96.0592C103.35 96.0592 104.58 94.8291 104.58 93.3168C104.58 91.805 103.35 90.575 101.838 90.575C100.326 90.575 99.0955 91.805 99.0955 93.3168C99.0955 94.8291 100.326 96.0592 101.838 96.0592Z" fill="url(#paint17_linear_766_2381)"/>
<path d="M35.5807 93.3169C35.5807 89.7902 32.7229 86.9324 29.2008 86.9324L26.8529 86.9324L26.8529 88.0746C25.1919 89.2259 24.1089 91.1417 24.1089 93.3168C24.1089 95.492 25.1919 97.4079 26.8529 98.5592L26.8529 99.7014L29.2008 99.7014C32.7229 99.7014 35.5807 96.8436 35.5807 93.3169Z" fill="url(#paint18_linear_766_2381)"/>
<path d="M26.85 99.6998C30.3756 99.6998 33.2337 96.8417 33.2337 93.3161C33.2337 89.7905 30.3756 86.9324 26.85 86.9324C23.3244 86.9324 20.4663 89.7905 20.4663 93.3161C20.4663 96.8417 23.3244 99.6998 26.85 99.6998Z" fill="url(#paint19_linear_766_2381)"/>
<path d="M33.2331 93.317C33.233 89.7919 30.3754 86.9343 26.8504 86.9343C23.3254 86.9343 20.4678 89.7919 20.4678 93.3169C20.4678 96.842 23.3254 99.6996 26.8504 99.6996C25.1783 99.6484 23.5535 98.9393 22.4236 97.7438C21.2757 96.5689 20.6309 94.9409 20.6595 93.3169C20.6847 91.6955 21.342 90.097 22.4976 88.9642C23.6412 87.8231 25.2415 87.1717 26.8504 87.1833C28.4595 87.1706 30.0599 87.823 31.2035 88.9639C32.3586 90.097 33.0173 91.6952 33.0422 93.3169C33.0707 94.9412 32.4254 96.5691 31.2777 97.7443C30.1475 98.9397 28.5225 99.6487 26.8504 99.6996C30.3755 99.6996 33.2331 96.842 33.2331 93.317Z" fill="url(#paint20_linear_766_2381)"/>
<path d="M26.85 96.0592C28.3621 96.0592 29.5922 94.8291 29.5922 93.3168C29.5922 91.805 28.3621 90.575 26.85 90.575C25.338 90.575 24.1079 91.805 24.1079 93.3168C24.1079 94.8291 25.338 96.0592 26.85 96.0592Z" fill="url(#paint21_linear_766_2381)"/>
<path d="M54.9332 93.3169C54.9332 89.7902 52.0754 86.9324 48.5533 86.9324L46.2054 86.9324L46.2054 88.0746C44.5445 89.2259 43.4614 91.1417 43.4614 93.3168C43.4614 95.492 44.5445 97.4079 46.2055 98.5592L46.2055 99.7014L48.5533 99.7014C52.0755 99.7014 54.9332 96.8436 54.9332 93.3169Z" fill="url(#paint22_linear_766_2381)"/>
<path d="M46.2021 99.6998C49.7277 99.6998 52.5858 96.8417 52.5858 93.3161C52.5858 89.7905 49.7277 86.9324 46.2021 86.9324C42.6764 86.9324 39.8184 89.7905 39.8184 93.3161C39.8184 96.8417 42.6764 99.6998 46.2021 99.6998Z" fill="url(#paint23_linear_766_2381)"/>
<path d="M52.5856 93.317C52.5856 89.7919 49.728 86.9343 46.2029 86.9343C42.6779 86.9343 39.8203 89.7919 39.8203 93.3169C39.8203 96.842 42.6779 99.6996 46.203 99.6996C44.5309 99.6484 42.906 98.9393 41.7761 97.7438C40.6283 96.5689 39.9835 94.9409 40.012 93.3169C40.0372 91.6955 40.6945 90.097 41.8501 88.9642C42.9937 87.8231 44.594 87.1717 46.2029 87.1833C47.812 87.1706 49.4124 87.823 50.556 88.9639C51.7111 90.097 52.3698 91.6952 52.3947 93.3169C52.4232 94.9412 51.7779 96.5691 50.6303 97.7443C49.5001 98.9397 47.8751 99.6487 46.203 99.6996C49.728 99.6996 52.5856 96.842 52.5856 93.317Z" fill="url(#paint24_linear_766_2381)"/>
<path d="M46.2026 96.0592C47.7146 96.0592 48.9447 94.8291 48.9447 93.3168C48.9447 91.805 47.7146 90.575 46.2026 90.575C44.6905 90.575 43.4604 91.805 43.4604 93.3168C43.4604 94.8291 44.6905 96.0592 46.2026 96.0592Z" fill="url(#paint25_linear_766_2381)"/>
<path d="M32.7742 63.2568H19.7783C18.9412 63.2568 18.2625 63.9355 18.2625 64.7727V73.9545C18.2625 74.7916 18.9412 75.4704 19.7783 75.4704H32.7742C33.6114 75.4704 34.2901 74.7916 34.2901 73.9545V64.7727C34.2901 63.9355 33.6114 63.2568 32.7742 63.2568Z" fill="url(#paint26_linear_766_2381)"/>
<path d="M32.7753 64.7725H19.7786V73.9539H32.7753V64.7725Z" fill="url(#paint27_linear_766_2381)"/>
<path d="M51.6964 63.2568H38.7005C37.8633 63.2568 37.1846 63.9355 37.1846 64.7727V73.9545C37.1846 74.7916 37.8633 75.4704 38.7005 75.4704H51.6964C52.5335 75.4704 53.2123 74.7916 53.2123 73.9545V64.7727C53.2123 63.9355 52.5335 63.2568 51.6964 63.2568Z" fill="url(#paint28_linear_766_2381)"/>
<path d="M51.6971 64.7725H38.7004V73.9539H51.6971V64.7725Z" fill="url(#paint29_linear_766_2381)"/>
<path d="M89.5401 63.2568H76.5442C75.7071 63.2568 75.0283 63.9355 75.0283 64.7727V73.9545C75.0283 74.7916 75.7071 75.4704 76.5442 75.4704H83.8568C85.7028 75.4704 87.5451 75.5845 89.3723 75.8073C90.2694 75.9168 91.056 75.208 91.056 74.3041V64.7727C91.056 63.9355 90.3773 63.2568 89.5401 63.2568Z" fill="url(#paint30_linear_766_2381)"/>
<path d="M89.54 74.3009C87.6518 74.0707 85.7399 73.9545 83.8569 73.9545H76.5439V64.7726H89.54V74.3009Z" fill="url(#paint31_linear_766_2381)"/>
<path d="M70.6182 63.2568H57.6223C56.7852 63.2568 56.1064 63.9355 56.1064 64.7727V73.9545C56.1064 74.7916 56.7852 75.4704 57.6223 75.4704H70.6182C71.4554 75.4704 72.1341 74.7916 72.1341 73.9545V64.7727C72.1341 63.9355 71.4554 63.2568 70.6182 63.2568Z" fill="url(#paint32_linear_766_2381)"/>
<path d="M70.6188 64.7725H57.6221V73.9539H70.6188V64.7725Z" fill="url(#paint33_linear_766_2381)"/>
<path d="M112.365 82.7132L111.194 72.3522C111.194 67.3289 107.122 63.2568 102.099 63.2568H95.4663C94.6292 63.2568 93.9504 63.9355 93.9504 64.7727V75.4113C93.9504 76.1091 94.4292 76.7067 95.1046 76.8817C96.8325 77.3297 98.5329 77.8861 100.192 78.5623C103.378 79.8604 106.701 81.6755 109.449 84.1831C109.774 84.4797 110.192 84.6521 110.632 84.6521C111.672 84.6521 112.482 83.7469 112.365 82.7132Z" fill="url(#paint34_linear_766_2381)"/>
<path d="M110.633 83.1365C110.561 83.1365 110.501 83.0913 110.471 83.0639C107.91 80.7264 104.644 78.7398 100.764 77.158C99.0804 76.4726 97.3039 75.8864 95.4846 75.4142L95.4661 64.7726H102.099C106.278 64.7726 109.678 68.173 109.678 72.352V72.4372L110.859 82.8833C110.868 82.967 110.834 83.0262 110.803 83.0602C110.772 83.095 110.717 83.1365 110.633 83.1365Z" fill="url(#paint35_linear_766_2381)"/>
<path d="M138.146 83.2205C137.035 83.3944 135.449 83.1478 135.449 83.1478C134.307 83.0324 133.847 83.8507 133.663 84.5606C133.524 85.0916 133.771 85.6542 134.214 85.8687C135.65 86.5655 136.696 87.0145 137.434 87.3031C138.214 87.6082 139.023 86.9312 139.023 85.9756V83.9419C139.023 83.4788 138.604 83.149 138.146 83.2205Z" fill="url(#paint36_linear_766_2381)"/>
<path d="M121.41 83.1478C121.41 83.1478 119.825 83.3944 118.713 83.2205C118.255 83.149 117.836 83.4788 117.836 83.9419V85.9756C117.836 86.9312 118.645 87.6082 119.425 87.3031C120.163 87.0145 121.209 86.5655 122.646 85.8687C123.088 85.6542 123.335 85.0916 123.197 84.5606C123.012 83.8507 122.552 83.0324 121.41 83.1478Z" fill="url(#paint37_linear_766_2381)"/>
<path d="M117.835 89.5876L114.454 93.3173H135.991C137.666 93.3173 139.023 91.9599 139.023 90.2855V89.5876H117.835Z" fill="url(#paint38_linear_766_2381)"/>
<path d="M114.128 89.5876C113.543 89.5876 113.068 90.0622 113.068 90.6475V93.3173H114.804C116.478 93.3173 117.836 91.9599 117.836 90.2855V89.5876H114.128Z" fill="url(#paint39_linear_766_2381)"/>
<path d="M131.117 85.708H125.742C125.533 85.708 125.363 85.8777 125.363 86.087V87.778C125.363 87.9873 125.533 88.157 125.742 88.157H131.117C131.326 88.157 131.496 87.9873 131.496 87.778V86.087C131.496 85.8777 131.326 85.708 131.117 85.708Z" fill="url(#paint40_linear_766_2381)"/>
<path d="M76.4089 93.3171V86.8185H88.2232V93.3171H88.7419V86.5591C88.7419 86.4161 88.6255 86.2997 88.4826 86.2997H76.1495C76.0065 86.2997 75.8901 86.4161 75.8901 86.5591V93.3171H76.4089Z" fill="url(#paint41_linear_766_2381)"/>
<path d="M83.9929 87.6591H80.6389C80.3241 87.6591 80.0688 87.9143 80.0688 88.2292V88.2354C80.0688 88.5503 80.3241 88.8055 80.6389 88.8055H83.9929C84.3078 88.8055 84.5631 88.5503 84.5631 88.2354V88.2292C84.5631 87.9143 84.3078 87.6591 83.9929 87.6591Z" fill="url(#paint42_linear_766_2381)"/>
<path d="M58.9172 93.3171V86.8185H70.7315V93.3171H71.2502V86.5591C71.2502 86.4161 71.1338 86.2997 70.9909 86.2997H58.6578C58.5148 86.2997 58.3984 86.4161 58.3984 86.5591V93.3171H58.9172Z" fill="url(#paint43_linear_766_2381)"/>
<path d="M66.5012 87.6591H63.1472C62.8324 87.6591 62.5771 87.9143 62.5771 88.2292V88.2354C62.5771 88.5503 62.8324 88.8055 63.1472 88.8055H66.5012C66.8161 88.8055 67.0714 88.5503 67.0714 88.2354V88.2292C67.0714 87.9143 66.8161 87.6591 66.5012 87.6591Z" fill="url(#paint44_linear_766_2381)"/>
<defs>
<linearGradient id="paint0_linear_766_2381" x1="124.004" y1="91.0442" x2="112.533" y2="91.0442" gradientUnits="userSpaceOnUse">
<stop stop-color="#727272"/>
<stop offset="0.853" stop-color="#313131"/>
<stop offset="1" stop-color="#262626"/>
</linearGradient>
<linearGradient id="paint1_linear_766_2381" x1="115.274" y1="83.2049" x2="115.274" y2="94.6765" gradientUnits="userSpaceOnUse">
<stop stop-color="#727272"/>
<stop offset="0.853" stop-color="#313131"/>
<stop offset="1" stop-color="#262626"/>
</linearGradient>
<linearGradient id="paint2_linear_766_2381" x1="112.064" y1="94.2535" x2="121.578" y2="84.7397" gradientUnits="userSpaceOnUse">
<stop stop-color="#727272"/>
<stop offset="0.853" stop-color="#313131"/>
<stop offset="1" stop-color="#262626"/>
</linearGradient>
<linearGradient id="paint3_linear_766_2381" x1="49.0179" y1="91.0442" x2="37.5463" y2="91.0442" gradientUnits="userSpaceOnUse">
<stop stop-color="#727272"/>
<stop offset="0.853" stop-color="#313131"/>
<stop offset="1" stop-color="#262626"/>
</linearGradient>
<linearGradient id="paint4_linear_766_2381" x1="40.2873" y1="83.2049" x2="40.2873" y2="94.6765" gradientUnits="userSpaceOnUse">
<stop stop-color="#727272"/>
<stop offset="0.853" stop-color="#313131"/>
<stop offset="1" stop-color="#262626"/>
</linearGradient>
<linearGradient id="paint5_linear_766_2381" x1="37.0774" y1="94.2535" x2="46.5912" y2="84.7397" gradientUnits="userSpaceOnUse">
<stop stop-color="#727272"/>
<stop offset="0.853" stop-color="#313131"/>
<stop offset="1" stop-color="#262626"/>
</linearGradient>
<linearGradient id="paint6_linear_766_2381" x1="68.37" y1="91.0442" x2="56.8984" y2="91.0442" gradientUnits="userSpaceOnUse">
<stop stop-color="#727272"/>
<stop offset="0.853" stop-color="#313131"/>
<stop offset="1" stop-color="#262626"/>
</linearGradient>
<linearGradient id="paint7_linear_766_2381" x1="59.6393" y1="83.2049" x2="59.6393" y2="94.6765" gradientUnits="userSpaceOnUse">
<stop stop-color="#727272"/>
<stop offset="0.853" stop-color="#313131"/>
<stop offset="1" stop-color="#262626"/>
</linearGradient>
<linearGradient id="paint8_linear_766_2381" x1="56.4293" y1="94.2535" x2="65.9431" y2="84.7397" gradientUnits="userSpaceOnUse">
<stop stop-color="#727272"/>
<stop offset="0.853" stop-color="#313131"/>
<stop offset="1" stop-color="#262626"/>
</linearGradient>
<linearGradient id="paint9_linear_766_2381" x1="75.4852" y1="83.1245" x2="136.999" y2="41.5711" gradientUnits="userSpaceOnUse">
<stop stop-color="#FEF328"/>
<stop offset="0.886" stop-color="#FF7F02"/>
</linearGradient>
<linearGradient id="paint10_linear_766_2381" x1="131.553" y1="83.9622" x2="124.545" y2="68.8067" gradientUnits="userSpaceOnUse">
<stop stop-color="#727272"/>
<stop offset="0.853" stop-color="#313131"/>
<stop offset="1" stop-color="#262626"/>
</linearGradient>
<linearGradient id="paint11_linear_766_2381" x1="84.056" y1="61.5955" x2="85.7099" y2="52.7207" gradientUnits="userSpaceOnUse">
<stop stop-color="#FEF328"/>
<stop offset="0.886" stop-color="#FF7F02"/>
</linearGradient>
<linearGradient id="paint12_linear_766_2381" x1="63.6195" y1="62.508" x2="63.6195" y2="52.7598" gradientUnits="userSpaceOnUse">
<stop stop-color="#727272"/>
<stop offset="0.853" stop-color="#313131"/>
<stop offset="1" stop-color="#262626"/>
</linearGradient>
<linearGradient id="paint13_linear_766_2381" x1="66.6027" y1="31.4932" x2="66.6027" y2="83.6912" gradientUnits="userSpaceOnUse">
<stop stop-color="#FEF328"/>
<stop offset="0.886" stop-color="#FF7F02"/>
</linearGradient>
<linearGradient id="paint14_linear_766_2381" x1="110.567" y1="93.3157" x2="99.0957" y2="93.3157" gradientUnits="userSpaceOnUse">
<stop stop-color="#727272"/>
<stop offset="0.853" stop-color="#313131"/>
<stop offset="1" stop-color="#262626"/>
</linearGradient>
<linearGradient id="paint15_linear_766_2381" x1="101.837" y1="85.4794" x2="101.837" y2="96.9485" gradientUnits="userSpaceOnUse">
<stop stop-color="#727272"/>
<stop offset="0.853" stop-color="#313131"/>
<stop offset="1" stop-color="#262626"/>
</linearGradient>
<linearGradient id="paint16_linear_766_2381" x1="98.6266" y1="96.5285" x2="108.14" y2="87.0148" gradientUnits="userSpaceOnUse">
<stop stop-color="#727272"/>
<stop offset="0.853" stop-color="#313131"/>
<stop offset="1" stop-color="#262626"/>
</linearGradient>
<linearGradient id="paint17_linear_766_2381" x1="104.58" y1="93.3182" x2="99.0956" y2="93.3182" gradientUnits="userSpaceOnUse">
<stop stop-color="#DAE7ED"/>
<stop offset="0.713" stop-color="#A2B9BD"/>
<stop offset="1" stop-color="#8CA6AA"/>
</linearGradient>
<linearGradient id="paint18_linear_766_2381" x1="35.5807" y1="93.3157" x2="24.1091" y2="93.3157" gradientUnits="userSpaceOnUse">
<stop stop-color="#727272"/>
<stop offset="0.853" stop-color="#313131"/>
<stop offset="1" stop-color="#262626"/>
</linearGradient>
<linearGradient id="paint19_linear_766_2381" x1="26.85" y1="85.4794" x2="26.85" y2="96.9485" gradientUnits="userSpaceOnUse">
<stop stop-color="#727272"/>
<stop offset="0.853" stop-color="#313131"/>
<stop offset="1" stop-color="#262626"/>
</linearGradient>
<linearGradient id="paint20_linear_766_2381" x1="23.64" y1="96.5285" x2="33.1537" y2="87.0148" gradientUnits="userSpaceOnUse">
<stop stop-color="#727272"/>
<stop offset="0.853" stop-color="#313131"/>
<stop offset="1" stop-color="#262626"/>
</linearGradient>
<linearGradient id="paint21_linear_766_2381" x1="29.591" y1="93.3182" x2="24.1064" y2="93.3182" gradientUnits="userSpaceOnUse">
<stop stop-color="#DAE7ED"/>
<stop offset="0.713" stop-color="#A2B9BD"/>
<stop offset="1" stop-color="#8CA6AA"/>
</linearGradient>
<linearGradient id="paint22_linear_766_2381" x1="54.9328" y1="93.3157" x2="43.4612" y2="93.3157" gradientUnits="userSpaceOnUse">
<stop stop-color="#727272"/>
<stop offset="0.853" stop-color="#313131"/>
<stop offset="1" stop-color="#262626"/>
</linearGradient>
<linearGradient id="paint23_linear_766_2381" x1="46.2021" y1="85.4794" x2="46.2021" y2="96.9485" gradientUnits="userSpaceOnUse">
<stop stop-color="#727272"/>
<stop offset="0.853" stop-color="#313131"/>
<stop offset="1" stop-color="#262626"/>
</linearGradient>
<linearGradient id="paint24_linear_766_2381" x1="42.9921" y1="96.5285" x2="52.5058" y2="87.0148" gradientUnits="userSpaceOnUse">
<stop stop-color="#727272"/>
<stop offset="0.853" stop-color="#313131"/>
<stop offset="1" stop-color="#262626"/>
</linearGradient>
<linearGradient id="paint25_linear_766_2381" x1="48.9432" y1="93.3182" x2="43.4611" y2="93.3182" gradientUnits="userSpaceOnUse">
<stop stop-color="#DAE7ED"/>
<stop offset="0.713" stop-color="#A2B9BD"/>
<stop offset="1" stop-color="#8CA6AA"/>
</linearGradient>
<linearGradient id="paint26_linear_766_2381" x1="26.2756" y1="77.4159" x2="26.2756" y2="64.9911" gradientUnits="userSpaceOnUse">
<stop stop-color="#727272"/>
<stop offset="0.853" stop-color="#313131"/>
<stop offset="1" stop-color="#262626"/>
</linearGradient>
<linearGradient id="paint27_linear_766_2381" x1="26.2756" y1="61.9129" x2="26.2756" y2="78.828" gradientUnits="userSpaceOnUse">
<stop stop-color="#727272"/>
<stop offset="0.853" stop-color="#313131"/>
<stop offset="1" stop-color="#262626"/>
</linearGradient>
<linearGradient id="paint28_linear_766_2381" x1="45.1976" y1="77.4159" x2="45.1976" y2="64.9911" gradientUnits="userSpaceOnUse">
<stop stop-color="#727272"/>
<stop offset="0.853" stop-color="#313131"/>
<stop offset="1" stop-color="#262626"/>
</linearGradient>
<linearGradient id="paint29_linear_766_2381" x1="45.1975" y1="61.9129" x2="45.1975" y2="78.828" gradientUnits="userSpaceOnUse">
<stop stop-color="#727272"/>
<stop offset="0.853" stop-color="#313131"/>
<stop offset="1" stop-color="#262626"/>
</linearGradient>
<linearGradient id="paint30_linear_766_2381" x1="83.041" y1="77.4159" x2="83.041" y2="64.9911" gradientUnits="userSpaceOnUse">
<stop stop-color="#727272"/>
<stop offset="0.853" stop-color="#313131"/>
<stop offset="1" stop-color="#262626"/>
</linearGradient>
<linearGradient id="paint31_linear_766_2381" x1="83.041" y1="61.9127" x2="83.041" y2="78.8277" gradientUnits="userSpaceOnUse">
<stop stop-color="#727272"/>
<stop offset="0.853" stop-color="#313131"/>
<stop offset="1" stop-color="#262626"/>
</linearGradient>
<linearGradient id="paint32_linear_766_2381" x1="64.1193" y1="77.4159" x2="64.1193" y2="64.9911" gradientUnits="userSpaceOnUse">
<stop stop-color="#727272"/>
<stop offset="0.853" stop-color="#313131"/>
<stop offset="1" stop-color="#262626"/>
</linearGradient>
<linearGradient id="paint33_linear_766_2381" x1="64.1191" y1="61.9129" x2="64.1191" y2="78.828" gradientUnits="userSpaceOnUse">
<stop stop-color="#727272"/>
<stop offset="0.853" stop-color="#313131"/>
<stop offset="1" stop-color="#262626"/>
</linearGradient>
<linearGradient id="paint34_linear_766_2381" x1="103.164" y1="77.4159" x2="103.164" y2="64.9911" gradientUnits="userSpaceOnUse">
<stop stop-color="#727272"/>
<stop offset="0.853" stop-color="#313131"/>
<stop offset="1" stop-color="#262626"/>
</linearGradient>
<linearGradient id="paint35_linear_766_2381" x1="103.163" y1="61.9127" x2="103.163" y2="78.8277" gradientUnits="userSpaceOnUse">
<stop stop-color="#727272"/>
<stop offset="0.853" stop-color="#313131"/>
<stop offset="1" stop-color="#262626"/>
</linearGradient>
<linearGradient id="paint36_linear_766_2381" x1="136.324" y1="84.2637" x2="136.324" y2="87.7673" gradientUnits="userSpaceOnUse">
<stop stop-color="#DAE7ED"/>
<stop offset="0.713" stop-color="#A2B9BD"/>
<stop offset="1" stop-color="#8CA6AA"/>
</linearGradient>
<linearGradient id="paint37_linear_766_2381" x1="120.534" y1="84.2637" x2="120.534" y2="87.7673" gradientUnits="userSpaceOnUse">
<stop stop-color="#DAE7ED"/>
<stop offset="0.713" stop-color="#A2B9BD"/>
<stop offset="1" stop-color="#8CA6AA"/>
</linearGradient>
<linearGradient id="paint38_linear_766_2381" x1="126.737" y1="88.6997" x2="126.737" y2="92.4558" gradientUnits="userSpaceOnUse">
<stop stop-color="#DAE7ED"/>
<stop offset="0.713" stop-color="#A2B9BD"/>
<stop offset="1" stop-color="#8CA6AA"/>
</linearGradient>
<linearGradient id="paint39_linear_766_2381" x1="118.288" y1="94.3415" x2="114.447" y2="90.4283" gradientUnits="userSpaceOnUse">
<stop stop-color="#DAE7ED"/>
<stop offset="0.713" stop-color="#A2B9BD"/>
<stop offset="1" stop-color="#8CA6AA"/>
</linearGradient>
<linearGradient id="paint40_linear_766_2381" x1="128.43" y1="89.9282" x2="128.43" y2="85.8759" gradientUnits="userSpaceOnUse">
<stop stop-color="#727272"/>
<stop offset="0.853" stop-color="#313131"/>
<stop offset="1" stop-color="#262626"/>
</linearGradient>
<linearGradient id="paint41_linear_766_2381" x1="82.3171" y1="86.2987" x2="82.3171" y2="94.0916" gradientUnits="userSpaceOnUse">
<stop stop-color="#FEF328"/>
<stop offset="0.886" stop-color="#FF7F02"/>
</linearGradient>
<linearGradient id="paint42_linear_766_2381" x1="82.317" y1="87.1282" x2="82.317" y2="89.3927" gradientUnits="userSpaceOnUse">
<stop stop-color="#FEF328"/>
<stop offset="0.886" stop-color="#FF7F02"/>
</linearGradient>
<linearGradient id="paint43_linear_766_2381" x1="64.825" y1="86.2987" x2="64.825" y2="94.0916" gradientUnits="userSpaceOnUse">
<stop stop-color="#FEF328"/>
<stop offset="0.886" stop-color="#FF7F02"/>
</linearGradient>
<linearGradient id="paint44_linear_766_2381" x1="64.8249" y1="87.1282" x2="64.8249" y2="89.3927" gradientUnits="userSpaceOnUse">
<stop stop-color="#FEF328"/>
<stop offset="0.886" stop-color="#FF7F02"/>
</linearGradient>
</defs>
</svg>
