<svg width="136" height="42" viewBox="0 0 136 42" fill="none" xmlns="http://www.w3.org/2000/svg">
<rect width="136" height="42" rx="7" fill="black"/>
<path d="M18.446 25.126C15.548 25.126 13.77 23.138 13.77 20.058V19.946C13.77 16.978 15.758 14.836 18.474 14.836C20.56 14.836 22.324 15.942 22.534 18.112H21.33C21.078 16.586 20.196 15.802 18.488 15.802C16.416 15.802 15.03 17.412 15.03 19.932V20.044C15.03 22.592 16.318 24.132 18.474 24.132C20.112 24.132 21.246 23.306 21.498 21.682H22.632C22.282 23.992 20.686 25.126 18.446 25.126ZM28.9526 24.118C31.1786 24.118 32.5506 22.438 32.5506 20.016V19.904C32.5506 17.664 31.2346 15.844 28.9246 15.844C26.6006 15.844 25.2566 17.552 25.2566 19.932V20.044C25.2566 22.466 26.8666 24.118 28.9526 24.118ZM28.9526 25.126C25.9986 25.126 23.9966 22.858 23.9966 20.058V19.946C23.9966 17.104 25.9846 14.864 28.9246 14.864C31.8646 14.864 33.8106 17.104 33.8106 19.918V20.03C33.8106 22.858 31.8646 25.126 28.9526 25.126ZM35.8342 25V14.99H37.5282L40.6222 22.788L43.6182 14.99H45.2982V25H44.0802V16.572L40.7622 25H40.3842L36.9542 16.572V25H35.8342ZM47.8945 25V14.99H49.1125V25H47.8945ZM51.7073 25V14.99H53.2893L58.1613 23.264V14.99H59.3233V25H57.9233L52.8693 16.418V25H51.7073ZM66.1921 25.126C63.1121 25.126 61.3481 22.984 61.3481 20.058V19.946C61.3481 17.02 63.3221 14.836 66.1921 14.836C68.1801 14.836 69.9581 15.76 70.2661 18.014H69.0481C68.7681 16.418 67.6761 15.802 66.2201 15.802C63.9241 15.802 62.6081 17.482 62.6081 19.932V20.044C62.6081 22.522 63.8401 24.146 66.1921 24.146C68.3621 24.146 69.3001 22.732 69.3421 20.954H66.4161V19.946H70.5321V20.688C70.5321 23.586 68.7541 25.126 66.1921 25.126ZM79.5096 25.126C76.8356 25.126 75.8696 23.656 75.6876 21.948H76.8636C77.0176 23.138 77.4936 24.146 79.5096 24.146C80.7976 24.146 81.7916 23.39 81.7916 22.256C81.7916 21.122 81.2736 20.646 79.3696 20.338C77.2696 20.016 76.0236 19.358 76.0236 17.58C76.0236 16.04 77.3536 14.864 79.2436 14.864C81.2456 14.864 82.4916 15.844 82.6876 17.622H81.5956C81.3576 16.362 80.6296 15.844 79.2436 15.844C77.8716 15.844 77.1576 16.53 77.1576 17.468C77.1576 18.448 77.5216 18.952 79.5656 19.26C81.7916 19.61 82.9676 20.282 82.9676 22.172C82.9676 23.852 81.4976 25.126 79.5096 25.126ZM89.4506 24.118C91.6766 24.118 93.0486 22.438 93.0486 20.016V19.904C93.0486 17.664 91.7326 15.844 89.4226 15.844C87.0986 15.844 85.7546 17.552 85.7546 19.932V20.044C85.7546 22.466 87.3646 24.118 89.4506 24.118ZM89.4506 25.126C86.4966 25.126 84.4946 22.858 84.4946 20.058V19.946C84.4946 17.104 86.4826 14.864 89.4226 14.864C92.3626 14.864 94.3086 17.104 94.3086 19.918V20.03C94.3086 22.858 92.3626 25.126 89.4506 25.126ZM100.798 24.118C103.024 24.118 104.396 22.438 104.396 20.016V19.904C104.396 17.664 103.08 15.844 100.77 15.844C98.4463 15.844 97.1023 17.552 97.1023 19.932V20.044C97.1023 22.466 98.7123 24.118 100.798 24.118ZM100.798 25.126C97.8443 25.126 95.8423 22.858 95.8423 20.058V19.946C95.8423 17.104 97.8303 14.864 100.77 14.864C103.71 14.864 105.656 17.104 105.656 19.918V20.03C105.656 22.858 103.71 25.126 100.798 25.126ZM107.68 25V14.99H109.262L114.134 23.264V14.99H115.296V25H113.896L108.842 16.418V25H107.68Z" fill="white"/>
</svg>
