<svg width="153" height="153" viewBox="0 0 153 153" fill="none" xmlns="http://www.w3.org/2000/svg">
<mask id="mask0_766_2482" style="mask-type:alpha" maskUnits="userSpaceOnUse" x="0" y="0" width="153" height="153">
<rect x="0.267578" width="152.732" height="152.732" rx="20.4693" fill="white"/>
</mask>
<g mask="url(#mask0_766_2482)">
<rect x="0.267578" width="152.732" height="152.732" rx="20.4693" fill="white"/>
</g>
<g clip-path="url(#clip0_766_2482)">
<path d="M117.006 40.4658H37.8366C35.3331 40.4658 33.3176 42.497 33.3176 44.9848V106.282H121.525V45.0006C121.525 42.497 119.493 40.4658 117.006 40.4658Z" fill="#E2E2E2"/>
<path d="M116.061 45.8985H38.7812V100.866H116.061V45.8985Z" fill="url(#paint0_linear_766_2482)"/>
<path d="M38.7812 50.7482L58.7152 100.851H38.7812V50.7482Z" fill="#606060" fill-opacity="0.12"/>
<path d="M82.0189 100.866H79.4838L57.6289 45.8985H60.164L82.0189 100.866Z" fill="#606060" fill-opacity="0.12"/>
<path d="M98.8509 100.866H96.3158L74.4609 45.8985H76.996L98.8509 100.866Z" fill="#606060" fill-opacity="0.12"/>
<path d="M122.186 113.841H32.6563C29.5545 113.841 27.0352 111.322 27.0352 108.204V106H127.807V108.204C127.807 111.322 125.288 113.841 122.186 113.841Z" fill="#D6D6D6"/>
<path d="M68.3042 106.016V108.503C68.3042 109.291 68.9813 109.921 69.8158 109.921H85.0418C85.8763 109.921 86.5534 109.291 86.5534 108.503V106.016H68.3042Z" fill="#E2E2E2"/>
<path d="M84.601 66.9189C84.1129 66.9189 83.7035 66.5252 83.7035 66.0214V62.4629C83.7035 60.7781 83.0422 59.2035 81.8613 58.0226C80.6646 56.8417 79.09 56.1804 77.421 56.1804C73.957 56.1804 71.1385 58.9988 71.1385 62.4629V66.0214C71.1385 66.5095 70.7449 66.9189 70.241 66.9189C69.7371 66.9189 69.3435 66.5252 69.3435 66.0214V62.4629C69.3435 58.0226 72.965 54.4011 77.421 54.4011C79.5782 54.4011 81.6093 55.2356 83.1209 56.763C84.6482 58.2745 85.4828 60.3057 85.4828 62.4629V66.0214C85.4828 66.5252 85.0891 66.9189 84.601 66.9189Z" fill="#365470"/>
<path d="M90.1908 92.0332H64.6514C63.5964 92.0332 62.8091 90.9939 62.9508 89.8445L62.9981 89.5611L63.0611 89.0572L66.0212 66.3206C66.0685 66.0057 66.3047 65.7695 66.5881 65.7695H88.2698C88.5532 65.7695 88.7894 65.9899 88.8366 66.3206L91.8126 89.0572L91.8755 89.5611L91.9228 89.8445C92.033 91.0097 91.23 92.0332 90.1908 92.0332Z" fill="#F4F2F2"/>
<path d="M90.1908 92.0332H64.6514C63.5964 92.0332 62.8091 90.9939 62.9508 89.8445L62.9981 89.5611H91.8598L91.907 89.8445C92.033 91.0097 91.23 92.0332 90.1908 92.0332Z" fill="#E9E9E9"/>
<path d="M83.1369 78.9166C83.1369 82.0657 80.5703 84.6322 77.4212 84.6322C74.2721 84.6322 71.7056 82.0657 71.7056 78.9166C71.7056 75.7675 74.2721 73.2009 77.4212 73.2009C80.5703 73.2009 83.1369 75.7517 83.1369 78.9166Z" fill="#00A053"/>
<path d="M79.8302 76.4445L76.5551 79.7196C76.4921 79.7826 76.3819 79.7826 76.3031 79.7196L74.9963 78.4127C74.9333 78.3498 74.8231 78.3498 74.7443 78.4127L74.1617 78.9953C74.0988 79.0583 74.0988 79.1685 74.1617 79.2473L76.3031 81.3887C76.3661 81.4516 76.4763 81.4516 76.5551 81.3887L80.6489 77.2948C80.7119 77.2318 80.7119 77.1216 80.6489 77.0429L80.0663 76.4603C80.0191 76.3816 79.9089 76.3816 79.8302 76.4445Z" fill="#F4F2F2"/>
</g>
<defs>
<linearGradient id="paint0_linear_766_2482" x1="21.243" y1="74.7621" x2="117.308" y2="73.8599" gradientUnits="userSpaceOnUse">
<stop offset="0.569" stop-color="#55BDFB"/>
<stop offset="1" stop-color="#0D81F3"/>
</linearGradient>
<clipPath id="clip0_766_2482">
<rect width="100.772" height="100.772" fill="white" transform="translate(27.0352 26.7676)"/>
</clipPath>
</defs>
</svg>
