<svg width="538" height="117" viewBox="0 0 538 117" fill="none" xmlns="http://www.w3.org/2000/svg">
<path d="M23.5507 80.5835C19.4867 80.5835 15.8221 80.2188 12.5569 79.4893C9.29177 78.7946 6.49555 77.9783 4.16827 77.0405L2.81358 63.6499C5.48822 64.7614 8.44075 65.7688 11.6712 66.6719C14.9363 67.5403 18.462 67.9745 22.2481 67.9745C25.2701 67.9745 27.4064 67.6619 28.6569 67.0366C29.9421 66.3766 30.5847 65.3693 30.5847 64.0146V63.8062C30.5847 62.8683 30.2547 62.1042 29.5947 61.5137C28.9695 60.8884 27.8579 60.3326 26.2601 59.8463C24.697 59.36 22.4913 58.7869 19.643 58.1269C15.3705 57.1196 11.9838 55.9386 9.48282 54.5839C6.98185 53.1945 5.19297 51.5098 4.11617 49.5299C3.0741 47.5152 2.55307 45.1358 2.55307 42.3917V41.9749C2.55307 36.9035 4.35932 33.1173 7.97182 30.6163C11.5843 28.0806 16.8989 26.8128 23.9155 26.8128C27.8753 26.8128 31.4357 27.1775 34.5966 27.907C37.7576 28.6364 40.4149 29.5048 42.5685 30.5121L43.9232 42.9648C41.4222 41.8533 38.626 40.9328 35.5345 40.2034C32.4778 39.4739 29.2647 39.1092 25.8954 39.1092C23.846 39.1092 22.2308 39.2481 21.0498 39.526C19.9035 39.8039 19.0872 40.2034 18.6009 40.7244C18.1493 41.2454 17.9236 41.888 17.9236 42.6522V42.8085C17.9236 43.6422 18.2014 44.3543 18.7572 44.9448C19.313 45.5353 20.3203 46.0911 21.7792 46.6121C23.2728 47.1331 25.4091 47.7236 28.1879 48.3836C32.4951 49.3215 35.9687 50.3983 38.6086 51.614C41.2485 52.795 43.1763 54.3408 44.3921 56.2512C45.6078 58.1269 46.2157 60.6279 46.2157 63.7541V64.223C46.2157 69.746 44.3573 73.8622 40.6406 76.5715C36.9239 79.2462 31.2273 80.5835 23.5507 80.5835ZM81.4034 79.333H58.6342L48.3698 28.1154H64.5219L70.8785 68.0787H71.8164L78.0688 29.3659H97.5554L103.912 68.0787H104.798L111.207 28.1154H127.202L116.938 79.333H94.2729L89.1147 46.7163L88.2289 40.9849H87.4995L86.5616 46.7163L81.4034 79.333ZM149.839 79.333H133.895V28.1154H149.839V79.333ZM141.867 23.2698C138.88 23.2698 136.709 22.5924 135.354 21.2377C133.999 19.8483 133.322 17.99 133.322 15.6627V15.298C133.322 12.9707 133.999 11.1297 135.354 9.775C136.709 8.42031 138.88 7.74296 141.867 7.74296C144.785 7.74296 146.921 8.42031 148.276 9.775C149.665 11.1297 150.36 12.9707 150.36 15.298V15.6627C150.36 18.0247 149.665 19.8831 148.276 21.2377C146.921 22.5924 144.785 23.2698 141.867 23.2698ZM178.95 8.83713C181.763 8.83713 184.369 9.06292 186.765 9.51448C189.197 9.9313 191.316 10.4523 193.122 11.0776L194.477 22.8529C193.087 22.4709 191.611 22.1409 190.048 21.863C188.485 21.5851 186.783 21.4462 184.942 21.4462C182.753 21.4462 181.034 21.6893 179.784 22.1756C178.568 22.6272 177.717 23.2698 177.23 24.1034C176.779 24.9023 176.553 25.8749 176.553 27.0212V27.1254C176.553 27.9591 176.675 28.7059 176.918 29.3659C177.196 30.0258 177.508 30.6511 177.856 31.2416L167.539 31.6063V29.9911C165.733 29.2964 164.187 28.2022 162.902 26.7086C161.652 25.215 161.026 23.2698 161.026 20.873V20.6125C161.026 16.8958 162.468 14.0127 165.351 11.9633C168.269 9.8792 172.802 8.83713 178.95 8.83713ZM178.637 79.333H162.746V34.8888H178.637V79.333ZM193.122 42.9648H155.868V30.4079L169.623 30.5121L175.667 30.4079H194.425L193.122 42.9648ZM221.993 80.4793C217.443 80.4793 213.813 79.8019 211.103 78.4473C208.429 77.0578 206.501 74.9911 205.32 72.2469C204.139 69.5028 203.548 66.1161 203.548 62.0868V33.482H219.388V59.5337C219.388 62.0347 219.944 63.8757 221.055 65.0567C222.201 66.203 224.32 66.7761 227.412 66.7761C229.114 66.7761 230.798 66.585 232.466 66.203C234.133 65.8209 235.644 65.3346 236.999 64.7441L235.644 77.9262C233.873 78.6904 231.823 79.2983 229.496 79.7498C227.203 80.2361 224.702 80.4793 221.993 80.4793ZM235.123 40.8286H196.671V28.3238H236.53L235.123 40.8286ZM218.919 29.4701H203.757L203.705 16.2358L219.492 14.7248L218.919 29.4701ZM275.063 80.5314C272.006 80.5314 269.436 80.0277 267.351 79.0204C265.267 78.0131 263.6 76.5889 262.349 74.7479C261.134 72.8722 260.265 70.7012 259.744 68.235H255.628L259.38 57.5017C259.449 59.6206 259.849 61.4094 260.578 62.8683C261.342 64.3272 262.419 65.4561 263.808 66.2551C265.233 67.0192 266.917 67.4013 268.862 67.4013C271.78 67.4013 273.986 66.5503 275.48 64.8483C277.008 63.1115 277.772 60.5411 277.772 57.137V49.8425C277.772 46.4384 277.025 43.8853 275.532 42.1833C274.073 40.4813 271.884 39.6302 268.967 39.6302C267.334 39.6302 265.84 39.9429 264.486 40.5681C263.166 41.1933 262.037 42.027 261.099 43.0691C260.196 44.0764 259.536 45.24 259.119 46.56L255.472 39.2134H259.692C260.213 36.9209 261.082 34.8541 262.297 33.0131C263.513 31.1374 265.198 29.6611 267.351 28.5843C269.505 27.4728 272.249 26.917 275.584 26.917C281.558 26.917 286.074 28.8796 289.131 32.8047C292.222 36.6951 293.768 42.548 293.768 50.3635V56.6159C293.768 64.5009 292.222 70.4581 289.131 74.4874C286.074 78.5167 281.385 80.5314 275.063 80.5314ZM259.588 97.2566H243.749V28.1154H259.588L259.067 41.9228L259.38 43.7464V63.4415L259.171 66.1509L259.588 79.854V97.2566ZM347.586 79.333H331.903L332.372 66.5156L332.007 65.734V49.7383L331.903 47.6542C331.903 44.8058 331.069 42.7043 329.402 41.3496C327.734 39.995 324.938 39.3176 321.013 39.3176C317.574 39.3176 314.309 39.7518 311.218 40.6202C308.126 41.4886 305.208 42.4785 302.464 43.5901L303.819 31.2416C305.451 30.4774 307.275 29.7653 309.29 29.1053C311.339 28.4106 313.597 27.8549 316.063 27.438C318.529 27.0212 321.169 26.8128 323.983 26.8128C328.464 26.8128 332.215 27.3338 335.237 28.3759C338.259 29.418 340.673 30.8942 342.48 32.8047C344.286 34.7151 345.588 37.0077 346.387 39.6823C347.186 42.3222 347.586 45.24 347.586 48.4357V79.333ZM315.594 80.5314C310.488 80.5314 306.615 79.2462 303.975 76.6757C301.335 74.1053 300.015 70.4407 300.015 65.6819V64.2751C300.015 59.2385 301.561 55.5218 304.653 53.125C307.779 50.6935 312.729 49.0436 319.502 48.1752L333.257 46.3516L334.195 55.9386L322.003 57.7101C319.537 58.0227 317.8 58.5959 316.793 59.4295C315.785 60.2632 315.282 61.4963 315.282 63.1289V63.4936C315.282 65.0567 315.785 66.3072 316.793 67.245C317.8 68.1481 319.415 68.5997 321.638 68.5997C323.583 68.5997 325.251 68.3045 326.64 67.714C328.064 67.1234 329.228 66.3593 330.131 65.4214C331.034 64.4488 331.712 63.372 332.163 62.191L334.404 68.6518H331.798C331.243 70.8749 330.374 72.8896 329.193 74.6958C328.047 76.5021 326.38 77.9262 324.191 78.9683C322.003 80.0104 319.137 80.5314 315.594 80.5314ZM375.656 80.5835C371.592 80.5835 367.927 80.2188 364.662 79.4893C361.397 78.7946 358.6 77.9783 356.273 77.0405L354.918 63.6499C357.593 64.7614 360.546 65.7688 363.776 66.6719C367.041 67.5403 370.567 67.9745 374.353 67.9745C377.375 67.9745 379.511 67.6619 380.762 67.0366C382.047 66.3766 382.69 65.3693 382.69 64.0146V63.8062C382.69 62.8683 382.36 62.1042 381.7 61.5137C381.074 60.8884 379.963 60.3326 378.365 59.8463C376.802 59.36 374.596 58.7869 371.748 58.1269C367.475 57.1196 364.089 55.9386 361.588 54.5839C359.087 53.1945 357.298 51.5098 356.221 49.5299C355.179 47.5152 354.658 45.1358 354.658 42.3917V41.9749C354.658 36.9035 356.464 33.1173 360.077 30.6163C363.689 28.0806 369.004 26.8128 376.02 26.8128C379.98 26.8128 383.541 27.1775 386.702 27.907C389.862 28.6364 392.52 29.5048 394.673 30.5121L396.028 42.9648C393.527 41.8533 390.731 40.9328 387.639 40.2034C384.583 39.4739 381.37 39.1092 378 39.1092C375.951 39.1092 374.336 39.2481 373.155 39.526C372.008 39.8039 371.192 40.2034 370.706 40.7244C370.254 41.2454 370.028 41.888 370.028 42.6522V42.8085C370.028 43.6422 370.306 44.3543 370.862 44.9448C371.418 45.5353 372.425 46.0911 373.884 46.6121C375.378 47.1331 377.514 47.7236 380.293 48.3836C384.6 49.3215 388.074 50.3983 390.713 51.614C393.353 52.795 395.281 54.3408 396.497 56.2512C397.713 58.1269 398.321 60.6279 398.321 63.7541V64.223C398.321 69.746 396.462 73.8622 392.745 76.5715C389.029 79.2462 383.332 80.5835 375.656 80.5835ZM423.994 80.5835C419.93 80.5835 416.265 80.2188 413 79.4893C409.735 78.7946 406.939 77.9783 404.611 77.0405L403.257 63.6499C405.931 64.7614 408.884 65.7688 412.114 66.6719C415.379 67.5403 418.905 67.9745 422.691 67.9745C425.713 67.9745 427.849 67.6619 429.1 67.0366C430.385 66.3766 431.028 65.3693 431.028 64.0146V63.8062C431.028 62.8683 430.698 62.1042 430.038 61.5137C429.412 60.8884 428.301 60.3326 426.703 59.8463C425.14 59.36 422.934 58.7869 420.086 58.1269C415.813 57.1196 412.427 55.9386 409.926 54.5839C407.425 53.1945 405.636 51.5098 404.559 49.5299C403.517 47.5152 402.996 45.1358 402.996 42.3917V41.9749C402.996 36.9035 404.802 33.1173 408.415 30.6163C412.027 28.0806 417.342 26.8128 424.358 26.8128C428.318 26.8128 431.879 27.1775 435.04 27.907C438.201 28.6364 440.858 29.5048 443.011 30.5121L444.366 42.9648C441.865 41.8533 439.069 40.9328 435.977 40.2034C432.921 39.4739 429.708 39.1092 426.338 39.1092C424.289 39.1092 422.674 39.2481 421.493 39.526C420.346 39.8039 419.53 40.2034 419.044 40.7244C418.592 41.2454 418.367 41.888 418.367 42.6522V42.8085C418.367 43.6422 418.644 44.3543 419.2 44.9448C419.756 45.5353 420.763 46.0911 422.222 46.6121C423.716 47.1331 425.852 47.7236 428.631 48.3836C432.938 49.3215 436.412 50.3983 439.052 51.614C441.691 52.795 443.619 54.3408 444.835 56.2512C446.051 58.1269 446.659 60.6279 446.659 63.7541V64.223C446.659 69.746 444.8 73.8622 441.084 76.5715C437.367 79.2462 431.67 80.5835 423.994 80.5835Z" fill="white"/>
<path fill-rule="evenodd" clip-rule="evenodd" d="M500.157 34.377C502.921 31.2595 502.866 26.2655 500.034 23.2226L486.984 9.19811C484.153 6.15523 479.617 6.21568 476.853 9.33316L463.952 23.886C461.188 27.0035 461.243 31.9974 464.074 35.0402L477.125 49.0648C479.956 52.1077 480.011 57.1017 477.247 60.2191L464.673 74.4029C461.909 77.5203 461.964 82.5144 464.796 85.5572L477.846 99.5817C480.677 102.625 485.213 102.564 487.977 99.4467L500.878 84.8937C503.642 81.7763 503.587 76.7823 500.756 73.7395L487.705 59.715C484.874 56.6721 484.819 51.6781 487.583 48.5606L500.157 34.377Z" fill="#00A053"/>
<rect x="514.371" y="29.2209" width="32.5646" height="32.5646" rx="6.51292" transform="rotate(44.3063 514.371 29.2209)" fill="#BDEF57"/>
</svg>
