<svg width="153" height="153" viewBox="0 0 153 153" fill="none" xmlns="http://www.w3.org/2000/svg">
<mask id="mask0_766_2500" style="mask-type:alpha" maskUnits="userSpaceOnUse" x="0" y="0" width="153" height="153">
<rect width="152.732" height="152.732" rx="20.4693" fill="white"/>
</mask>
<g mask="url(#mask0_766_2500)">
<rect width="152.732" height="152.732" rx="20.4693" fill="white"/>
</g>
<path d="M99.0242 116.657H45.1916C44.2985 116.657 43.442 116.302 42.8105 115.67C42.179 115.039 41.8242 114.182 41.8242 113.289C41.8242 112.396 42.179 111.54 42.8105 110.908C43.442 110.277 44.2985 109.922 45.1916 109.922H99.0242C99.9172 109.922 100.774 110.277 101.405 110.908C102.037 111.54 102.392 112.396 102.392 113.289C102.392 114.182 102.037 115.039 101.405 115.67C100.774 116.302 99.9172 116.657 99.0242 116.657Z" fill="#2921CC"/>
<path d="M94.731 93.5058C95.8771 93.5058 96.9762 93.9611 97.7867 94.7715C98.5971 95.582 99.0524 96.6811 99.0524 97.8273V100.033C99.0524 101.179 99.5077 102.278 100.318 103.089C101.129 103.899 102.228 104.354 103.374 104.354C104.52 104.354 105.619 103.899 106.43 103.089C107.24 102.278 107.695 101.179 107.695 100.033V70.7987" stroke="black" stroke-width="2.02069" stroke-linecap="round" stroke-linejoin="round"/>
<path d="M54.1374 39.2469H90.0557C91.2897 39.2469 92.4731 39.7371 93.3456 40.6096C94.2181 41.4821 94.7083 42.6655 94.7083 43.8994V109.922H49.4849V43.8994C49.4849 42.6655 49.975 41.4821 50.8476 40.6096C51.7201 39.7371 52.9035 39.2469 54.1374 39.2469Z" fill="url(#paint0_linear_766_2500)"/>
<path d="M85.4821 44.6688H58.7341C56.7225 44.6688 55.0918 46.2996 55.0918 48.3112V66.6239C55.0918 68.6355 56.7225 70.2663 58.7341 70.2663H85.4821C87.4937 70.2663 89.1244 68.6355 89.1244 66.6239V48.3112C89.1244 46.2996 87.4937 44.6688 85.4821 44.6688Z" fill="#F1F1F2"/>
<path d="M55.0918 74.576H68.7408" stroke="#241B79" stroke-width="2.02069" stroke-linecap="round" stroke-linejoin="round"/>
<path d="M75.4697 74.576H89.1243" stroke="#241B79" stroke-width="2.02069" stroke-linecap="round" stroke-linejoin="round"/>
<path d="M55.0918 77.8876H68.7408" stroke="#241B79" stroke-width="2.02069" stroke-linecap="round" stroke-linejoin="round"/>
<path d="M75.4697 77.8876H89.1243" stroke="#241B79" stroke-width="2.02069" stroke-linecap="round" stroke-linejoin="round"/>
<path d="M55.0918 81.204H68.7408" stroke="#241B79" stroke-width="2.02069" stroke-linecap="round" stroke-linejoin="round"/>
<path d="M75.4697 81.204H89.1243" stroke="#241B79" stroke-width="2.02069" stroke-linecap="round" stroke-linejoin="round"/>
<path d="M67.0625 97.0872V96.9132C67.0617 96.0613 67.2316 95.2178 67.562 94.4326C67.6512 94.2148 67.7543 94.003 67.8707 93.7984L69.4253 91.5872L72.1079 87.7821L72.1472 87.8382L76.3451 93.7984C76.8769 94.7503 77.1552 95.8229 77.1533 96.9132V97.2051C77.1537 97.8833 77.0175 98.5546 76.7529 99.179C76.4882 99.8035 76.1005 100.368 75.6129 100.84C75.1253 101.311 74.5478 101.679 73.9147 101.923C73.2817 102.166 72.6061 102.279 71.9283 102.256C70.6199 102.189 69.3868 101.623 68.4821 100.676C67.5773 99.7281 67.0694 98.4703 67.0625 97.1602V97.0872Z" fill="url(#paint1_linear_766_2500)"/>
<path d="M109.334 59.5577V69.8505C109.335 70.0265 109.293 70.2001 109.211 70.3561C109.13 70.5121 109.011 70.6458 108.866 70.7455C108.721 70.8451 108.554 70.9078 108.379 70.9278C108.204 70.9479 108.027 70.9249 107.863 70.8607L102.402 68.7112C102.153 68.6128 101.948 68.4251 101.829 68.1845C101.71 67.9439 101.684 67.6676 101.757 67.4092L104.081 59.2658C104.144 59.0395 104.28 58.8403 104.468 58.6984C104.655 58.5566 104.884 58.4799 105.119 58.4801H108.295C108.575 58.4875 108.841 58.6046 109.035 58.8062C109.229 59.0078 109.337 59.2777 109.334 59.5577Z" fill="url(#paint2_linear_766_2500)"/>
<path d="M108.296 53.2045V58.4857H105.49V53.603L102.263 48.4005C102.079 48.0846 102.027 47.7097 102.115 47.3556C102.204 47.0014 102.427 46.6958 102.738 46.5036C103.048 46.3115 103.422 46.2479 103.778 46.3265C104.135 46.4051 104.447 46.6196 104.648 46.9244L108.082 52.4693C108.222 52.6892 108.296 52.9442 108.296 53.2045Z" fill="#FFB206"/>
<path opacity="0.5" d="M87.7214 45.4482L62.904 70.2711H58.7341C57.7686 70.2696 56.843 69.8854 56.1603 69.2027C55.4775 68.5199 55.0933 67.5943 55.0918 66.6288V56.9364L67.3489 44.6737H85.4821C86.2941 44.6742 87.0825 44.9469 87.7214 45.4482Z" fill="white"/>
<path opacity="0.5" d="M89.1246 49.7928V60.3719L79.219 70.2719H68.6455L89.1246 49.7928Z" fill="white"/>
<path opacity="0.5" d="M102.335 113.895C102.189 114.666 101.778 115.361 101.173 115.861C100.569 116.361 99.8087 116.634 99.0241 116.634H45.1915C44.3558 116.629 43.5518 116.314 42.9355 115.749C42.3193 115.185 41.935 114.412 41.8574 113.579C41.7797 112.747 42.0142 111.916 42.5152 111.247C43.0163 110.579 43.7482 110.12 44.5686 109.961C44.5327 110.167 44.5139 110.375 44.5124 110.584C44.5124 111.477 44.8672 112.333 45.4987 112.965C46.1302 113.596 46.9867 113.951 47.8798 113.951H101.718C101.925 113.949 102.131 113.931 102.335 113.895Z" fill="#241B79"/>
<path opacity="0.5" d="M94.7307 106.824V109.922H49.4849V43.8995C49.4858 42.9045 49.8049 41.9358 50.3956 41.1351C50.9863 40.3343 51.8176 39.7435 52.768 39.449C52.6327 39.8929 52.5628 40.3542 52.5604 40.8184V100.662C52.5604 102.299 53.2108 103.869 54.3685 105.027C55.5263 106.185 57.0965 106.835 58.7338 106.835L94.7307 106.824Z" fill="#2921CC"/>
<path opacity="0.5" d="M109.334 69.3398V69.8505C109.335 70.0265 109.293 70.2001 109.211 70.3561C109.13 70.5121 109.011 70.6458 108.866 70.7455C108.721 70.8451 108.554 70.9078 108.379 70.9278C108.204 70.9479 108.027 70.9249 107.863 70.8607L102.402 68.7112C102.153 68.6128 101.948 68.4251 101.829 68.1845C101.71 67.9439 101.684 67.6676 101.757 67.4092L104.081 59.2658C104.144 59.0395 104.28 58.8403 104.468 58.6984C104.655 58.5566 104.884 58.4799 105.119 58.4801H105.377L103.261 65.8995C103.188 66.1579 103.214 66.4342 103.333 66.6748C103.452 66.9154 103.657 67.1031 103.907 67.2015L109.334 69.3398Z" fill="#D87600"/>
<path d="M108.296 53.2045V58.4857H105.49V53.603L102.263 48.4005C102.079 48.0846 102.027 47.7097 102.115 47.3556C102.204 47.0014 102.427 46.6958 102.738 46.5036C103.048 46.3115 103.422 46.2479 103.778 46.3265C104.135 46.4051 104.447 46.6196 104.648 46.9244L108.082 52.4693C108.222 52.6892 108.296 52.9442 108.296 53.2045Z" fill="#D87600"/>
<path opacity="0.5" d="M103.301 48.4003L106.528 53.6028V58.4799H105.489V53.6028L102.262 48.4003C102.106 48.1489 102.032 47.8543 102.053 47.5587C102.074 47.2631 102.188 46.9818 102.379 46.755C102.57 46.5282 102.827 46.3675 103.115 46.2961C103.402 46.2247 103.705 46.2462 103.98 46.3574C103.901 46.3869 103.826 46.4245 103.755 46.4697C103.598 46.5661 103.462 46.6927 103.354 46.8421C103.246 46.9916 103.168 47.1609 103.126 47.3403C103.084 47.5198 103.077 47.7058 103.107 47.8878C103.137 48.0697 103.203 48.2439 103.301 48.4003Z" fill="#683100"/>
<defs>
<linearGradient id="paint0_linear_766_2500" x1="39.2216" y1="76.3582" x2="95.4418" y2="76.1179" gradientUnits="userSpaceOnUse">
<stop offset="0.569" stop-color="#55BDFB"/>
<stop offset="1" stop-color="#0D81F3"/>
</linearGradient>
<linearGradient id="paint1_linear_766_2500" x1="72.108" y1="76.6581" x2="72.108" y2="98.2731" gradientUnits="userSpaceOnUse">
<stop stop-color="#FEF328"/>
<stop offset="0.886" stop-color="#FF7F02"/>
</linearGradient>
<linearGradient id="paint2_linear_766_2500" x1="105.525" y1="48.91" x2="105.525" y2="67.5057" gradientUnits="userSpaceOnUse">
<stop stop-color="#FEF328"/>
<stop offset="0.886" stop-color="#FF7F02"/>
</linearGradient>
</defs>
</svg>
