<svg width="186" height="41" viewBox="0 0 186 41" fill="none" xmlns="http://www.w3.org/2000/svg">
<path d="M8.136 28.0018C6.732 28.0018 5.466 27.8758 4.338 27.6238C3.21 27.3838 2.244 27.1018 1.44 26.7778L0.972 22.1518C1.896 22.5358 2.916 22.8838 4.032 23.1958C5.16 23.4958 6.378 23.6458 7.686 23.6458C8.73 23.6458 9.468 23.5378 9.9 23.3218C10.344 23.0938 10.566 22.7458 10.566 22.2778V22.2058C10.566 21.8818 10.452 21.6178 10.224 21.4138C10.008 21.1978 9.624 21.0058 9.072 20.8378C8.532 20.6698 7.77 20.4718 6.786 20.2438C5.31 19.8958 4.14 19.4878 3.276 19.0198C2.412 18.5398 1.794 17.9578 1.422 17.2738C1.062 16.5778 0.882 15.7558 0.882 14.8078V14.6638C0.882 12.9118 1.506 11.6038 2.754 10.7398C4.002 9.86382 5.838 9.42582 8.262 9.42582C9.63 9.42582 10.86 9.55182 11.952 9.80382C13.044 10.0558 13.962 10.3558 14.706 10.7038L15.174 15.0058C14.31 14.6218 13.344 14.3038 12.276 14.0518C11.22 13.7998 10.11 13.6738 8.946 13.6738C8.238 13.6738 7.68 13.7218 7.272 13.8178C6.876 13.9138 6.594 14.0518 6.426 14.2318C6.27 14.4118 6.192 14.6338 6.192 14.8978V14.9518C6.192 15.2398 6.288 15.4858 6.48 15.6898C6.672 15.8938 7.02 16.0858 7.524 16.2658C8.04 16.4458 8.778 16.6498 9.738 16.8778C11.226 17.2018 12.426 17.5738 13.338 17.9938C14.25 18.4018 14.916 18.9358 15.336 19.5958C15.756 20.2438 15.966 21.1078 15.966 22.1878V22.3498C15.966 24.2578 15.324 25.6798 14.04 26.6158C12.756 27.5398 10.788 28.0018 8.136 28.0018ZM28.1222 27.5698H20.2562L16.7102 9.87582H22.2902L24.4862 23.6818H24.8102L26.9702 10.3078H33.7022L35.8982 23.6818H36.2042L38.4182 9.87582H43.9442L40.3982 27.5698H32.5682L30.7862 16.3018L30.4802 14.3218H30.2282L29.9042 16.3018L28.1222 27.5698ZM51.7643 27.5698H46.2563V9.87582H51.7643V27.5698ZM49.0103 8.20182C47.9783 8.20182 47.2283 7.96782 46.7603 7.49982C46.2923 7.01982 46.0583 6.37782 46.0583 5.57382V5.44782C46.0583 4.64382 46.2923 4.00782 46.7603 3.53982C47.2283 3.07182 47.9783 2.83782 49.0103 2.83782C50.0183 2.83782 50.7563 3.07182 51.2243 3.53982C51.7043 4.00782 51.9443 4.64382 51.9443 5.44782V5.57382C51.9443 6.38982 51.7043 7.03182 51.2243 7.49982C50.7563 7.96782 50.0183 8.20182 49.0103 8.20182ZM61.8213 3.21582C62.7933 3.21582 63.6933 3.29382 64.5213 3.44982C65.3613 3.59382 66.0933 3.77382 66.7173 3.98982L67.1853 8.05782C66.7053 7.92582 66.1953 7.81182 65.6553 7.71582C65.1153 7.61982 64.5273 7.57182 63.8913 7.57182C63.1353 7.57182 62.5413 7.65582 62.1093 7.82382C61.6893 7.97982 61.3953 8.20182 61.2273 8.48982C61.0713 8.76582 60.9933 9.10182 60.9933 9.49782V9.53382C60.9933 9.82182 61.0353 10.0798 61.1193 10.3078C61.2153 10.5358 61.3233 10.7518 61.4433 10.9558L57.8793 11.0818V10.5238C57.2553 10.2838 56.7213 9.90582 56.2773 9.38982C55.8453 8.87382 55.6293 8.20182 55.6293 7.37382V7.28382C55.6293 5.99982 56.1273 5.00382 57.1233 4.29582C58.1313 3.57582 59.6973 3.21582 61.8213 3.21582ZM61.7133 27.5698H56.2233V12.2158H61.7133V27.5698ZM66.7173 15.0058H53.8473V10.6678L58.5993 10.7038L60.6873 10.6678H67.1673L66.7173 15.0058ZM76.6913 27.9658C75.1193 27.9658 73.8653 27.7318 72.9293 27.2638C72.0053 26.7838 71.3393 26.0698 70.9313 25.1218C70.5233 24.1738 70.3193 23.0038 70.3193 21.6118V11.7298H75.7913V20.7298C75.7913 21.5938 75.9833 22.2298 76.3673 22.6378C76.7633 23.0338 77.4953 23.2318 78.5633 23.2318C79.1513 23.2318 79.7333 23.1658 80.3093 23.0338C80.8853 22.9018 81.4073 22.7338 81.8753 22.5298L81.4073 27.0838C80.7953 27.3478 80.0873 27.5578 79.2833 27.7138C78.4913 27.8818 77.6273 27.9658 76.6913 27.9658ZM81.2273 14.2678H67.9433V9.94782H81.7133L81.2273 14.2678ZM75.6293 10.3438H70.3913L70.3733 5.77182L75.8273 5.24982L75.6293 10.3438ZM95.0251 27.9838C93.9691 27.9838 93.0811 27.8098 92.3611 27.4618C91.6411 27.1138 91.0651 26.6218 90.6331 25.9858C90.2131 25.3378 89.9131 24.5878 89.7331 23.7358H88.3111L89.6071 20.0278C89.6311 20.7598 89.7691 21.3778 90.0211 21.8818C90.2851 22.3858 90.6571 22.7758 91.1371 23.0518C91.6291 23.3158 92.2111 23.4478 92.8831 23.4478C93.8911 23.4478 94.6531 23.1538 95.1691 22.5658C95.6971 21.9658 95.9611 21.0778 95.9611 19.9018V17.3818C95.9611 16.2058 95.7031 15.3238 95.1871 14.7358C94.6831 14.1478 93.9271 13.8538 92.9191 13.8538C92.3551 13.8538 91.8391 13.9618 91.3711 14.1778C90.9151 14.3938 90.5251 14.6818 90.2011 15.0418C89.8891 15.3898 89.6611 15.7918 89.5171 16.2478L88.2571 13.7098H89.7151C89.8951 12.9178 90.1951 12.2038 90.6151 11.5678C91.0351 10.9198 91.6171 10.4098 92.3611 10.0378C93.1051 9.65382 94.0531 9.46182 95.2051 9.46182C97.2691 9.46182 98.8291 10.1398 99.8851 11.4958C100.953 12.8398 101.487 14.8618 101.487 17.5618V19.7218C101.487 22.4458 100.953 24.5038 99.8851 25.8958C98.8291 27.2878 97.2091 27.9838 95.0251 27.9838ZM89.6791 33.7618H84.2071V9.87582H89.6791L89.4991 14.6458L89.6071 15.2758V22.0798L89.5351 23.0158L89.6791 27.7498V33.7618ZM120.079 27.5698H114.661L114.823 23.1418L114.697 22.8718V17.3458L114.661 16.6258C114.661 15.6418 114.373 14.9158 113.797 14.4478C113.221 13.9798 112.255 13.7458 110.899 13.7458C109.711 13.7458 108.583 13.8958 107.515 14.1958C106.447 14.4958 105.439 14.8378 104.491 15.2218L104.959 10.9558C105.523 10.6918 106.153 10.4458 106.849 10.2178C107.557 9.97782 108.337 9.78582 109.189 9.64182C110.041 9.49782 110.953 9.42582 111.925 9.42582C113.473 9.42582 114.769 9.60582 115.813 9.96582C116.857 10.3258 117.691 10.8358 118.315 11.4958C118.939 12.1558 119.389 12.9478 119.665 13.8718C119.941 14.7838 120.079 15.7918 120.079 16.8958V27.5698ZM109.027 27.9838C107.263 27.9838 105.925 27.5398 105.013 26.6518C104.101 25.7638 103.645 24.4978 103.645 22.8538V22.3678C103.645 20.6278 104.179 19.3438 105.247 18.5158C106.327 17.6758 108.037 17.1058 110.377 16.8058L115.129 16.1758L115.453 19.4878L111.241 20.0998C110.389 20.2078 109.789 20.4058 109.441 20.6938C109.093 20.9818 108.919 21.4078 108.919 21.9718V22.0978C108.919 22.6378 109.093 23.0698 109.441 23.3938C109.789 23.7058 110.347 23.8618 111.115 23.8618C111.787 23.8618 112.363 23.7598 112.843 23.5558C113.335 23.3518 113.737 23.0878 114.049 22.7638C114.361 22.4278 114.595 22.0558 114.751 21.6478L115.525 23.8798H114.625C114.433 24.6478 114.133 25.3438 113.725 25.9678C113.329 26.5918 112.753 27.0838 111.997 27.4438C111.241 27.8038 110.251 27.9838 109.027 27.9838ZM129.777 28.0018C128.373 28.0018 127.107 27.8758 125.979 27.6238C124.851 27.3838 123.885 27.1018 123.081 26.7778L122.613 22.1518C123.537 22.5358 124.557 22.8838 125.673 23.1958C126.801 23.4958 128.019 23.6458 129.327 23.6458C130.371 23.6458 131.109 23.5378 131.541 23.3218C131.985 23.0938 132.207 22.7458 132.207 22.2778V22.2058C132.207 21.8818 132.093 21.6178 131.865 21.4138C131.649 21.1978 131.265 21.0058 130.713 20.8378C130.173 20.6698 129.411 20.4718 128.427 20.2438C126.951 19.8958 125.781 19.4878 124.917 19.0198C124.053 18.5398 123.435 17.9578 123.063 17.2738C122.703 16.5778 122.523 15.7558 122.523 14.8078V14.6638C122.523 12.9118 123.147 11.6038 124.395 10.7398C125.643 9.86382 127.479 9.42582 129.903 9.42582C131.271 9.42582 132.501 9.55182 133.593 9.80382C134.685 10.0558 135.603 10.3558 136.347 10.7038L136.815 15.0058C135.951 14.6218 134.985 14.3038 133.917 14.0518C132.861 13.7998 131.751 13.6738 130.587 13.6738C129.879 13.6738 129.321 13.7218 128.913 13.8178C128.517 13.9138 128.235 14.0518 128.067 14.2318C127.911 14.4118 127.833 14.6338 127.833 14.8978V14.9518C127.833 15.2398 127.929 15.4858 128.121 15.6898C128.313 15.8938 128.661 16.0858 129.165 16.2658C129.681 16.4458 130.419 16.6498 131.379 16.8778C132.867 17.2018 134.067 17.5738 134.979 17.9938C135.891 18.4018 136.557 18.9358 136.977 19.5958C137.397 20.2438 137.607 21.1078 137.607 22.1878V22.3498C137.607 24.2578 136.965 25.6798 135.681 26.6158C134.397 27.5398 132.429 28.0018 129.777 28.0018ZM146.476 28.0018C145.072 28.0018 143.806 27.8758 142.678 27.6238C141.55 27.3838 140.584 27.1018 139.78 26.7778L139.312 22.1518C140.236 22.5358 141.256 22.8838 142.372 23.1958C143.5 23.4958 144.718 23.6458 146.026 23.6458C147.07 23.6458 147.808 23.5378 148.24 23.3218C148.684 23.0938 148.906 22.7458 148.906 22.2778V22.2058C148.906 21.8818 148.792 21.6178 148.564 21.4138C148.348 21.1978 147.964 21.0058 147.412 20.8378C146.872 20.6698 146.11 20.4718 145.126 20.2438C143.65 19.8958 142.48 19.4878 141.616 19.0198C140.752 18.5398 140.134 17.9578 139.762 17.2738C139.402 16.5778 139.222 15.7558 139.222 14.8078V14.6638C139.222 12.9118 139.846 11.6038 141.094 10.7398C142.342 9.86382 144.178 9.42582 146.602 9.42582C147.97 9.42582 149.2 9.55182 150.292 9.80382C151.384 10.0558 152.302 10.3558 153.046 10.7038L153.514 15.0058C152.65 14.6218 151.684 14.3038 150.616 14.0518C149.56 13.7998 148.45 13.6738 147.286 13.6738C146.578 13.6738 146.02 13.7218 145.612 13.8178C145.216 13.9138 144.934 14.0518 144.766 14.2318C144.61 14.4118 144.532 14.6338 144.532 14.8978V14.9518C144.532 15.2398 144.628 15.4858 144.82 15.6898C145.012 15.8938 145.36 16.0858 145.864 16.2658C146.38 16.4458 147.118 16.6498 148.078 16.8778C149.566 17.2018 150.766 17.5738 151.678 17.9938C152.59 18.4018 153.256 18.9358 153.676 19.5958C154.096 20.2438 154.306 21.1078 154.306 22.1878V22.3498C154.306 24.2578 153.664 25.6798 152.38 26.6158C151.096 27.5398 149.128 28.0018 146.476 28.0018Z" fill="#3D3F3D"/>
<path fill-rule="evenodd" clip-rule="evenodd" d="M172.788 11.8761C173.743 10.7992 173.724 9.07392 172.746 8.0227L168.237 3.17769C167.259 2.12647 165.692 2.14736 164.738 3.22434L160.28 8.25188C159.326 9.32887 159.345 11.0541 160.323 12.1053L164.831 16.9503C165.809 18.0015 165.828 19.7268 164.874 20.8038L160.53 25.7038C159.575 26.7808 159.594 28.506 160.572 29.5572L165.08 34.4023C166.059 35.4534 167.626 35.4326 168.58 34.3556L173.037 29.328C173.992 28.251 173.973 26.5258 172.995 25.4746L168.487 20.6296C167.508 19.5784 167.489 17.8531 168.444 16.7761L172.788 11.8761Z" fill="#00A053"/>
<rect x="177.698" y="9.74951" width="11.25" height="11.25" rx="2.25" transform="rotate(44.3063 177.698 9.74951)" fill="#BDEF57"/>
</svg>
