<svg width="24" height="35" viewBox="0 0 24 35" fill="none" xmlns="http://www.w3.org/2000/svg">
<path d="M7 12C7 13.1046 6.10457 14 5 14C3.89543 14 3 13.1046 3 12C3 10.8954 3.89543 10 5 10C6.10457 10 7 10.8954 7 12Z" fill="#194240"/>
<path d="M14 12C14 13.1046 13.1046 14 12 14C10.8954 14 10 13.1046 10 12C10 10.8954 10.8954 10 12 10C13.1046 10 14 10.8954 14 12Z" fill="#194240"/>
<path d="M21 12C21 13.1046 20.1046 14 19 14C17.8954 14 17 13.1046 17 12C17 10.8954 17.8954 10 19 10C20.1046 10 21 10.8954 21 12Z" fill="#194240"/>
<path d="M7 23C7 24.1046 6.10457 25 5 25C3.89543 25 3 24.1046 3 23C3 21.8954 3.89543 21 5 21C6.10457 21 7 21.8954 7 23Z" fill="#194240"/>
<path d="M14 23C14 24.1046 13.1046 25 12 25C10.8954 25 10 24.1046 10 23C10 21.8954 10.8954 21 12 21C13.1046 21 14 21.8954 14 23Z" fill="#194240"/>
<path d="M21 23C21 24.1046 20.1046 25 19 25C17.8954 25 17 24.1046 17 23C17 21.8954 17.8954 21 19 21C20.1046 21 21 21.8954 21 23Z" fill="#194240"/>
</svg>
