<svg width="155" height="154" viewBox="0 0 155 154" fill="none" xmlns="http://www.w3.org/2000/svg">
<mask id="mask0_766_2273" style="mask-type:alpha" maskUnits="userSpaceOnUse" x="0" y="0" width="155" height="154">
<rect x="0.0102539" width="154" height="154" rx="20.6392" fill="white"/>
</mask>
<g mask="url(#mask0_766_2273)">
<rect x="0.0102539" width="154" height="154" rx="20.6392" fill="white"/>
<path d="M13.7666 92.4866C13.7666 86.9543 9.28367 82.4715 3.7586 82.4715L2.06858 82.4714V84.2632C-0.536922 86.0691 -2.23584 89.0744 -2.23584 92.4865C-2.23583 95.8987 -0.536898 98.9039 2.06862 100.71L2.06862 102.502L3.75864 102.502C9.28371 102.502 13.7666 98.0188 13.7666 92.4866Z" fill="url(#paint0_linear_766_2273)"/>
<path d="M7.89971 100.622C12.3935 97.4 13.4245 91.1452 10.2025 86.6514C6.98054 82.1576 0.725691 81.1266 -3.76808 84.3486C-8.26186 87.5706 -9.29286 93.8254 -6.07089 98.3192C-2.84891 102.813 3.40594 103.844 7.89971 100.622Z" fill="#0D0D0D"/>
<path d="M12.0771 92.4858C12.0771 86.9562 7.5945 82.4735 2.06489 82.4735C-3.46467 82.4735 -7.94727 86.9561 -7.94727 92.4857C-7.94727 98.0153 -3.46462 102.498 2.06494 102.498C-0.557971 102.418 -3.1068 101.305 -4.87924 99.4298C-6.67984 97.5869 -7.69135 95.0331 -7.64653 92.4857C-7.60701 89.9422 -6.57594 87.4347 -4.76317 85.6577C-2.96925 83.8677 -0.45898 82.8459 2.06489 82.864C4.58905 82.8442 7.09946 83.8676 8.89342 85.6572C10.7053 87.4347 11.7387 89.9417 11.7777 92.4857C11.8225 95.0336 10.8102 97.5871 9.00988 99.4307C7.23697 101.306 4.68789 102.418 2.06494 102.498C7.59455 102.498 12.0771 98.0154 12.0771 92.4858Z" fill="url(#paint1_linear_766_2273)"/>
<path d="M42.4448 92.4866C42.4448 86.9543 37.9619 82.4715 32.4368 82.4715L30.7468 82.4714L30.7468 84.2632C28.1413 86.0691 26.4424 89.0744 26.4424 92.4865C26.4424 95.8987 28.1413 98.9039 30.7468 100.71V102.502L32.4369 102.502C37.9619 102.502 42.4448 98.0188 42.4448 92.4866Z" fill="url(#paint2_linear_766_2273)"/>
<path d="M36.5774 100.622C41.0712 97.4 42.1022 91.1452 38.8802 86.6514C35.6583 82.1576 29.4034 81.1266 24.9096 84.3486C20.4159 87.5706 19.3849 93.8254 22.6068 98.3192C25.8288 102.813 32.0837 103.844 36.5774 100.622Z" fill="#0D0D0D"/>
<path d="M40.7554 92.4858C40.7553 86.9562 36.2727 82.4735 30.7431 82.4735C25.2136 82.4735 20.731 86.9561 20.731 92.4857C20.731 98.0153 25.2136 102.498 30.7432 102.498C28.1203 102.418 25.5714 101.305 23.799 99.4298C21.9984 97.5869 20.9869 95.0331 21.0317 92.4857C21.0712 89.9422 22.1023 87.4347 23.9151 85.6577C25.709 83.8677 28.2192 82.8459 30.7431 82.864C33.2673 82.8442 35.7777 83.8676 37.5717 85.6572C39.3836 87.4347 40.4169 89.9417 40.456 92.4857C40.5007 95.0336 39.4884 97.5871 37.6881 99.4307C35.9152 101.306 33.3661 102.418 30.7432 102.498C36.2728 102.498 40.7554 98.0154 40.7554 92.4858Z" fill="url(#paint3_linear_766_2273)"/>
<path d="M71.1225 92.4869C71.1225 86.9547 66.6396 82.4718 61.1146 82.4718L59.4245 82.4718V84.2635C56.819 86.0695 55.1201 89.0748 55.1201 92.4869C55.1201 95.899 56.8191 98.9043 59.4246 100.71V102.502L61.1146 102.502C66.6397 102.502 71.1225 98.0191 71.1225 92.4869Z" fill="url(#paint4_linear_766_2273)"/>
<path d="M65.2552 100.622C69.749 97.4001 70.78 91.1453 67.558 86.6515C64.336 82.1577 58.0812 81.1267 53.5874 84.3487C49.0936 87.5707 48.0626 93.8255 51.2846 98.3193C54.5066 102.813 60.7614 103.844 65.2552 100.622Z" fill="#0D0D0D"/>
<path d="M69.4336 92.486C69.4335 86.9564 64.951 82.4738 59.4213 82.4738C53.8918 82.4738 49.4092 86.9563 49.4092 92.4859C49.4092 98.0155 53.8918 102.498 59.4214 102.498C56.7985 102.418 54.2496 101.305 52.4772 99.4301C50.6766 97.5871 49.6651 95.0334 49.7099 92.4859C49.7494 89.9425 50.7805 87.4349 52.5933 85.6579C54.3872 83.868 56.8975 82.8461 59.4213 82.8643C61.9455 82.8444 64.4559 83.8678 66.2499 85.6574C68.0618 87.4349 69.0951 89.9419 69.1342 92.4859C69.1789 95.0338 68.1666 97.5874 66.3663 99.431C64.5934 101.306 62.0443 102.418 59.4214 102.498C64.951 102.498 69.4336 98.0156 69.4336 92.486Z" fill="url(#paint5_linear_766_2273)"/>
<path d="M75.378 93.8237C75.7132 93.3378 75.9105 92.7493 75.9105 92.1139V60.2254C75.9105 56.6148 66.2622 54.8096 56.6101 54.8096H24.748V93.8237H75.378Z" fill="url(#paint6_linear_766_2273)"/>
<path d="M45.882 60.2254V92.1139C45.882 92.7493 45.6847 93.3378 45.3494 93.8237H75.3782C75.7134 93.3378 75.9107 92.7493 75.9107 92.1139V60.2254C75.9107 56.6148 66.2624 54.8096 56.6103 54.8096H26.5815C36.2336 54.8096 45.882 56.6148 45.882 60.2254Z" fill="url(#paint7_linear_766_2273)"/>
<path d="M53.5885 53.471H52.7214C51.8475 53.3709 50.3932 53.3055 48.742 53.3055C47.0908 53.3055 45.6365 53.3709 44.7625 53.471H43.8955V55.1027C43.8955 56.5234 53.5885 56.5234 53.5885 55.1027L53.5885 53.471Z" fill="url(#paint8_linear_766_2273)"/>
<path d="M48.7409 53.8571C51.4161 53.8571 53.5847 53.6844 53.5847 53.4715C53.5847 53.2585 51.4161 53.0858 48.7409 53.0858C46.0657 53.0858 43.897 53.2585 43.897 53.4715C43.897 53.6844 46.0657 53.8571 48.7409 53.8571Z" fill="url(#paint9_linear_766_2273)"/>
<path d="M48.7421 53.8559C46.0662 53.8559 43.897 53.6835 43.897 53.4708C43.897 53.2582 46.0662 53.0858 48.742 53.0858C51.4179 53.0858 53.5872 53.2582 53.5872 53.4708C53.5483 53.37 53.01 53.272 52.1025 53.2038C51.2106 53.1346 49.9748 53.0957 48.742 53.0974C47.5112 53.0989 46.2978 53.1386 45.4378 53.2083C44.5717 53.2773 44.0772 53.3738 44.0859 53.4708C44.0763 53.5679 44.5716 53.6645 45.4376 53.7334C46.2978 53.8031 47.5109 53.8429 48.742 53.8444C49.975 53.8461 51.2107 53.8072 52.1029 53.7379C53.0103 53.6697 53.5485 53.5717 53.5872 53.4708C53.5872 53.6835 51.418 53.8559 48.7421 53.8559Z" fill="url(#paint10_linear_766_2273)"/>
<path d="M75.3779 93.8238C75.7131 93.3379 75.9104 92.7494 75.9104 92.114V85.1348H45.8816V92.114C45.8816 92.7494 45.6844 93.3379 45.3491 93.8238H75.3779Z" fill="url(#paint11_linear_766_2273)"/>
<path d="M58.6431 61.036H49.0705C48.3504 61.036 47.7666 61.6197 47.7666 62.3399V82.2978C47.7666 83.0179 48.3504 83.6017 49.0705 83.6017H58.6431C59.3631 83.6017 59.9469 83.0179 59.9469 82.2978V62.3399C59.9469 61.6197 59.3631 61.036 58.6431 61.036Z" fill="url(#paint12_linear_766_2273)"/>
<path d="M72.7224 61.036H63.1496C62.4295 61.036 61.8457 61.6197 61.8457 62.3399V82.2978C61.8457 83.0179 62.4295 83.6017 63.1496 83.6017H72.7224C73.4424 83.6017 74.0262 83.0179 74.0262 82.2978V62.3399C74.0262 61.6197 73.4424 61.036 72.7224 61.036Z" fill="url(#paint13_linear_766_2273)"/>
<path d="M50.3302 92.9544C52.03 92.9544 53.408 91.5896 53.408 89.9061C53.408 88.2226 52.03 86.8578 50.3302 86.8578C48.6304 86.8578 47.2524 88.2226 47.2524 89.9061C47.2524 91.5896 48.6304 92.9544 50.3302 92.9544Z" fill="url(#paint14_linear_766_2273)"/>
<path d="M50.3305 92.1173C51.5636 92.1173 52.5633 91.1276 52.5633 89.9066C52.5633 88.6857 51.5636 87.6959 50.3305 87.6959C49.0973 87.6959 48.0977 88.6857 48.0977 89.9066C48.0977 91.1276 49.0973 92.1173 50.3305 92.1173Z" fill="url(#paint15_linear_766_2273)"/>
<path d="M70.9459 92.9544C72.6458 92.9544 74.0237 91.5896 74.0237 89.9061C74.0237 88.2226 72.6458 86.8578 70.9459 86.8578C69.2461 86.8578 67.8682 88.2226 67.8682 89.9061C67.8682 91.5896 69.2461 92.9544 70.9459 92.9544Z" fill="url(#paint16_linear_766_2273)"/>
<path d="M70.9457 92.1171C72.1788 92.1171 73.1785 91.1273 73.1785 89.9064C73.1785 88.6854 72.1788 87.6957 70.9457 87.6957C69.7126 87.6957 68.7129 88.6854 68.7129 89.9064C68.7129 91.1273 69.7126 92.1171 70.9457 92.1171Z" fill="url(#paint17_linear_766_2273)"/>
<path d="M60.2741 56.1686C61.3415 56.1686 62.346 57.0597 62.5178 58.1589C62.6896 59.2582 61.9636 60.1493 60.8963 60.1493C59.8289 60.1493 58.8244 59.2582 58.6526 58.1589C58.4808 57.0597 59.2068 56.1686 60.2741 56.1686Z" fill="url(#paint18_linear_766_2273)"/>
<path d="M60.385 56.8774C61.0722 56.8774 61.719 57.4512 61.8296 58.159C61.9402 58.8668 61.4728 59.4405 60.7855 59.4405C60.0983 59.4405 59.4515 58.8667 59.3409 58.159C59.2303 57.4512 59.6977 56.8774 60.385 56.8774Z" fill="url(#paint19_linear_766_2273)"/>
<path d="M-3.80194 56.1682C-6.47909 56.1682 -8.64843 55.3152 -8.64843 55.1027L-8.64844 53.4711L-7.78139 53.4711C-6.90744 53.3709 -5.45314 53.3055 -3.80196 53.3055C-2.15076 53.3055 -0.696455 53.3709 0.177495 53.4711H1.04454L1.04455 55.1027C1.04456 55.3152 -1.1248 56.1682 -3.80194 56.1682Z" fill="url(#paint20_linear_766_2273)"/>
<path d="M-3.80211 53.8571C-1.12691 53.8571 1.04178 53.6844 1.04178 53.4715C1.04178 53.2585 -1.12691 53.0858 -3.80211 53.0858C-6.47731 53.0858 -8.646 53.2585 -8.646 53.4715C-8.646 53.6844 -6.47731 53.8571 -3.80211 53.8571Z" fill="url(#paint21_linear_766_2273)"/>
<path d="M-3.80235 53.8559C-6.47823 53.8559 -8.64746 53.6835 -8.64746 53.4708C-8.64746 53.2582 -6.47827 53.0858 -3.80239 53.0858C-1.12652 53.0858 1.04272 53.2582 1.04272 53.4708C1.00382 53.37 0.465536 53.272 -0.441978 53.2038C-1.33383 53.1346 -2.56964 53.0957 -3.80239 53.0974C-5.03321 53.0989 -6.24666 53.1386 -7.10659 53.2083C-7.97276 53.2773 -8.46726 53.3738 -8.45849 53.4708C-8.46809 53.5679 -7.97286 53.6645 -7.10683 53.7334C-6.24666 53.8031 -5.03349 53.8429 -3.80239 53.8444C-2.56941 53.8461 -1.33369 53.8072 -0.441561 53.7379C0.465859 53.6697 1.0041 53.5717 1.04272 53.4708C1.04272 53.6835 -1.12647 53.8559 -3.80235 53.8559Z" fill="url(#paint22_linear_766_2273)"/>
<path d="M21.7161 56.1682C19.039 56.1682 16.8696 55.3152 16.8696 55.1027L16.8696 53.4711L17.7367 53.4711C18.6106 53.3709 20.0649 53.3055 21.7161 53.3055C23.3673 53.3055 24.8216 53.3709 25.6956 53.4711H26.5626L26.5626 55.1027C26.5626 55.3152 24.3933 56.1682 21.7161 56.1682Z" fill="url(#paint23_linear_766_2273)"/>
<path d="M21.7164 53.8571C24.3916 53.8571 26.5603 53.6844 26.5603 53.4715C26.5603 53.2585 24.3916 53.0858 21.7164 53.0858C19.0412 53.0858 16.8726 53.2585 16.8726 53.4715C16.8726 53.6844 19.0412 53.8571 21.7164 53.8571Z" fill="url(#paint24_linear_766_2273)"/>
<path d="M21.7157 53.8559C19.0398 53.8559 16.8706 53.6835 16.8706 53.4708C16.8706 53.2582 19.0398 53.0858 21.7157 53.0858C24.3916 53.0858 26.5608 53.2582 26.5608 53.4708C26.5219 53.37 25.9836 53.272 25.0761 53.2038C24.1842 53.1346 22.9484 53.0957 21.7157 53.0974C20.4849 53.0989 19.2714 53.1386 18.4115 53.2083C17.5453 53.2773 17.0508 53.3738 17.0596 53.4708C17.05 53.5679 17.5452 53.6645 18.4112 53.7334C19.2714 53.8031 20.4846 53.8429 21.7157 53.8444C22.9487 53.8461 24.1844 53.8072 25.0765 53.7379C25.9839 53.6697 26.5222 53.5717 26.5608 53.4708C26.5608 53.6835 24.3916 53.8559 21.7157 53.8559Z" fill="url(#paint25_linear_766_2273)"/>
<path d="M45.3495 93.8237C45.6847 93.3378 45.882 92.7493 45.882 92.1139V60.2254C45.882 56.6148 36.2337 54.8096 26.5816 54.8096H-38.9781C-40.6401 54.8096 -41.9932 56.1588 -41.9932 57.8247V92.1139C-41.9932 92.7493 -41.7953 93.3378 -41.4596 93.8237H45.3495Z" fill="url(#paint26_linear_766_2273)"/>
<path d="M18.9293 61.036H5.33463C4.29389 61.036 3.4502 61.8798 3.4502 62.9204V78.6432C3.4502 79.684 4.29389 80.5276 5.33463 80.5276H18.9293C19.9701 80.5276 20.8138 79.684 20.8138 78.6432V62.9204C20.8138 61.8798 19.9701 61.036 18.9293 61.036Z" fill="url(#paint27_linear_766_2273)"/>
<path d="M40.0714 61.036H26.4767C25.436 61.036 24.5923 61.8798 24.5923 62.9204V78.6432C24.5923 79.684 25.436 80.5276 26.4767 80.5276H40.0714C41.1121 80.5276 41.9558 79.684 41.9558 78.6432V62.9204C41.9558 61.8798 41.1121 61.036 40.0714 61.036Z" fill="url(#paint28_linear_766_2273)"/>
<path d="M44.3462 92.4866C44.3462 86.9543 39.8633 82.4715 34.3382 82.4715L32.6482 82.4714L32.6482 84.2632C30.0427 86.0691 28.3437 89.0744 28.3438 92.4865C28.3438 95.8987 30.0427 98.9039 32.6482 100.71L32.6482 102.502L34.3382 102.502C39.8633 102.502 44.3462 98.0188 44.3462 92.4866Z" fill="url(#paint29_linear_766_2273)"/>
<path d="M38.4778 100.622C42.9716 97.4 44.0026 91.1452 40.7806 86.6514C37.5587 82.1576 31.3038 81.1266 26.81 84.3486C22.3163 87.5706 21.2853 93.8254 24.5072 98.3192C27.7292 102.813 33.9841 103.844 38.4778 100.622Z" fill="#0D0D0D"/>
<path d="M42.6567 92.4858C42.6567 86.9562 38.1741 82.4735 32.6445 82.4735C27.1149 82.4735 22.6323 86.9561 22.6323 92.4857C22.6323 98.0153 27.115 102.498 32.6445 102.498C30.0216 102.418 27.4728 101.305 25.7003 99.4298C23.8997 97.5869 22.8882 95.0331 22.9331 92.4857C22.9726 89.9422 24.0037 87.4347 25.8164 85.6577C27.6103 83.8677 30.1206 82.8459 32.6445 82.864C35.1686 82.8442 37.6791 83.8676 39.473 85.6572C41.2849 87.4347 42.3182 89.9417 42.3573 92.4857C42.4021 95.0336 41.3898 97.5871 39.5895 99.4307C37.8166 101.306 35.2675 102.418 32.6445 102.498C38.1741 102.498 42.6567 98.0154 42.6567 92.4858Z" fill="url(#paint30_linear_766_2273)"/>
<path d="M73.0244 92.4866C73.0244 86.9543 68.5415 82.4715 63.0164 82.4715L61.3264 82.4714V84.2632C58.7209 86.0691 57.022 89.0744 57.022 92.4865C57.022 95.8987 58.7209 98.9039 61.3264 100.71L61.3264 102.502L63.0164 102.502C68.5415 102.502 73.0244 98.0188 73.0244 92.4866Z" fill="url(#paint31_linear_766_2273)"/>
<path d="M67.1575 100.622C71.6513 97.4 72.6823 91.1452 69.4603 86.6514C66.2384 82.1576 59.9835 81.1266 55.4897 84.3486C50.996 87.5706 49.965 93.8254 53.1869 98.3192C56.4089 102.813 62.6638 103.844 67.1575 100.622Z" fill="#0D0D0D"/>
<path d="M71.335 92.4858C71.3349 86.9562 66.8523 82.4735 61.3227 82.4735C55.7931 82.4735 51.3105 86.9561 51.3105 92.4857C51.3105 98.0153 55.7932 102.498 61.3228 102.498C58.6998 102.418 56.151 101.305 54.3786 99.4298C52.578 97.5869 51.5665 95.0331 51.6113 92.4857C51.6508 89.9422 52.6819 87.4347 54.4946 85.6577C56.2886 83.8677 58.7988 82.8459 61.3227 82.864C63.8469 82.8442 66.3573 83.8676 68.1512 85.6572C69.9631 87.4347 70.9965 89.9417 71.0356 92.4857C71.0803 95.0336 70.068 97.5871 68.2677 99.4307C66.4948 101.306 63.9457 102.418 61.3228 102.498C66.8524 102.498 71.335 98.0154 71.335 92.4858Z" fill="url(#paint32_linear_766_2273)"/>
<path d="M101.703 92.4866C101.703 86.9543 97.2197 82.4715 91.6946 82.4715L90.0046 82.4714L90.0046 84.2632C87.3991 86.0691 85.7002 89.0744 85.7002 92.4865C85.7002 95.8987 87.3991 98.9039 90.0047 100.71V102.502L91.6947 102.502C97.2197 102.502 101.703 98.0188 101.703 92.4866Z" fill="url(#paint33_linear_766_2273)"/>
<path d="M95.8353 100.622C100.329 97.4 101.36 91.1452 98.1381 86.6514C94.9161 82.1576 88.6612 81.1266 84.1675 84.3486C79.6737 87.5706 78.6427 93.8254 81.8647 98.3192C85.0866 102.813 91.3415 103.844 95.8353 100.622Z" fill="#0D0D0D"/>
<path d="M100.013 92.4858C100.013 86.9562 95.5305 82.4735 90.0009 82.4735C84.4714 82.4735 79.9888 86.9561 79.9888 92.4857C79.9888 98.0153 84.4714 102.498 90.001 102.498C87.3781 102.418 84.8292 101.305 83.0568 99.4298C81.2562 97.5869 80.2447 95.0331 80.2895 92.4857C80.329 89.9422 81.3601 87.4347 83.1729 85.6577C84.9668 83.8677 87.4771 82.8459 90.0009 82.864C92.5251 82.8442 95.0355 83.8676 96.8295 85.6572C98.6414 87.4347 99.6747 89.9417 99.7138 92.4857C99.7585 95.0336 98.7462 97.5871 96.9459 99.4307C95.173 101.306 92.6239 102.418 90.001 102.498C95.5306 102.498 100.013 98.0154 100.013 92.4858Z" fill="url(#paint34_linear_766_2273)"/>
<path d="M130.38 92.4869C130.38 86.9547 125.897 82.4718 120.372 82.4718L118.682 82.4718V84.2635C116.077 86.0695 114.378 89.0748 114.378 92.4869C114.378 95.899 116.077 98.9043 118.682 100.71V102.502L120.372 102.502C125.897 102.502 130.38 98.0191 130.38 92.4869Z" fill="url(#paint35_linear_766_2273)"/>
<path d="M124.513 100.622C129.007 97.4001 130.038 91.1453 126.816 86.6515C123.594 82.1577 117.339 81.1267 112.845 84.3487C108.351 87.5707 107.32 93.8255 110.542 98.3193C113.764 102.813 120.019 103.844 124.513 100.622Z" fill="#0D0D0D"/>
<path d="M128.691 92.486C128.691 86.9564 124.209 82.4738 118.679 82.4738C113.15 82.4738 108.667 86.9563 108.667 92.4859C108.667 98.0155 113.15 102.498 118.679 102.498C116.056 102.418 113.507 101.305 111.735 99.4301C109.934 97.5871 108.923 95.0334 108.968 92.4859C109.007 89.9425 110.038 87.4349 111.851 85.6579C113.645 83.868 116.155 82.8461 118.679 82.8643C121.203 82.8444 123.714 83.8678 125.508 85.6574C127.32 87.4349 128.353 89.9419 128.392 92.4859C128.437 95.0338 127.424 97.5874 125.624 99.431C123.851 101.306 121.302 102.418 118.679 102.498C124.209 102.498 128.691 98.0156 128.691 92.486Z" fill="url(#paint36_linear_766_2273)"/>
<path d="M134.636 93.8237C134.972 93.3378 135.169 92.7493 135.169 92.1139V60.2254C135.169 56.6148 125.52 54.8096 115.868 54.8096H84.0063V93.8237H134.636Z" fill="url(#paint37_linear_766_2273)"/>
<path d="M105.14 60.2254V92.1139C105.14 92.7493 104.943 93.3378 104.608 93.8237H134.636C134.972 93.3378 135.169 92.7493 135.169 92.1139V60.2254C135.169 56.6148 125.521 54.8096 115.869 54.8096H85.8398C95.4919 54.8096 105.14 56.6148 105.14 60.2254Z" fill="url(#paint38_linear_766_2273)"/>
<path d="M112.847 53.471H111.98C111.106 53.3709 109.652 53.3055 108.001 53.3055C106.35 53.3055 104.895 53.3709 104.021 53.471H103.154V55.1027C103.154 56.5234 112.847 56.5234 112.847 55.1027L112.847 53.471Z" fill="url(#paint39_linear_766_2273)"/>
<path d="M107.999 53.8571C110.674 53.8571 112.843 53.6844 112.843 53.4715C112.843 53.2585 110.674 53.0858 107.999 53.0858C105.324 53.0858 103.155 53.2585 103.155 53.4715C103.155 53.6844 105.324 53.8571 107.999 53.8571Z" fill="url(#paint40_linear_766_2273)"/>
<path d="M108 53.8559C105.325 53.8559 103.155 53.6835 103.155 53.4708C103.155 53.2582 105.324 53.0858 108 53.0858C110.676 53.0858 112.845 53.2582 112.845 53.4708C112.807 53.37 112.268 53.272 111.361 53.2038C110.469 53.1346 109.233 53.0957 108 53.0974C106.77 53.0989 105.556 53.1386 104.696 53.2083C103.83 53.2773 103.335 53.3738 103.344 53.4708C103.335 53.5679 103.83 53.6645 104.696 53.7334C105.556 53.8031 106.769 53.8429 108 53.8444C109.233 53.8461 110.469 53.8072 111.361 53.7379C112.269 53.6697 112.807 53.5717 112.845 53.4708C112.845 53.6835 110.676 53.8559 108 53.8559Z" fill="url(#paint41_linear_766_2273)"/>
<path d="M134.636 93.8238C134.971 93.3379 135.169 92.7494 135.169 92.114V85.1348H105.14V92.114C105.14 92.7494 104.943 93.3379 104.607 93.8238H134.636Z" fill="url(#paint42_linear_766_2273)"/>
<path d="M117.901 61.036H108.328C107.608 61.036 107.024 61.6197 107.024 62.3399V82.2978C107.024 83.0179 107.608 83.6017 108.328 83.6017H117.901C118.621 83.6017 119.205 83.0179 119.205 82.2978V62.3399C119.205 61.6197 118.621 61.036 117.901 61.036Z" fill="url(#paint43_linear_766_2273)"/>
<path d="M131.981 61.036H122.408C121.688 61.036 121.104 61.6197 121.104 62.3399V82.2978C121.104 83.0179 121.688 83.6017 122.408 83.6017H131.981C132.701 83.6017 133.285 83.0179 133.285 82.2978V62.3399C133.285 61.6197 132.701 61.036 131.981 61.036Z" fill="url(#paint44_linear_766_2273)"/>
<path d="M109.589 92.9544C111.288 92.9544 112.666 91.5896 112.666 89.9061C112.666 88.2226 111.288 86.8578 109.589 86.8578C107.889 86.8578 106.511 88.2226 106.511 89.9061C106.511 91.5896 107.889 92.9544 109.589 92.9544Z" fill="url(#paint45_linear_766_2273)"/>
<path d="M109.588 92.1173C110.821 92.1173 111.821 91.1276 111.821 89.9066C111.821 88.6857 110.821 87.6959 109.588 87.6959C108.355 87.6959 107.355 88.6857 107.355 89.9066C107.355 91.1276 108.355 92.1173 109.588 92.1173Z" fill="url(#paint46_linear_766_2273)"/>
<path d="M130.204 92.9544C131.904 92.9544 133.282 91.5896 133.282 89.9061C133.282 88.2226 131.904 86.8578 130.204 86.8578C128.504 86.8578 127.126 88.2226 127.126 89.9061C127.126 91.5896 128.504 92.9544 130.204 92.9544Z" fill="url(#paint47_linear_766_2273)"/>
<path d="M130.204 92.1171C131.438 92.1171 132.437 91.1273 132.437 89.9064C132.437 88.6854 131.438 87.6957 130.204 87.6957C128.971 87.6957 127.972 88.6854 127.972 89.9064C127.972 91.1273 128.971 92.1171 130.204 92.1171Z" fill="url(#paint48_linear_766_2273)"/>
<path d="M119.532 56.1686C120.6 56.1686 121.604 57.0597 121.776 58.1589C121.948 59.2582 121.222 60.1493 120.155 60.1493C119.087 60.1493 118.083 59.2582 117.911 58.1589C117.739 57.0597 118.465 56.1686 119.532 56.1686Z" fill="url(#paint49_linear_766_2273)"/>
<path d="M119.643 56.8774C120.331 56.8774 120.977 57.4512 121.088 58.159C121.199 58.8668 120.731 59.4405 120.044 59.4405C119.357 59.4405 118.71 58.8667 118.599 58.159C118.489 57.4512 118.956 56.8774 119.643 56.8774Z" fill="url(#paint50_linear_766_2273)"/>
<path d="M29.9373 56.1682C27.2602 56.1682 25.0908 55.3152 25.0908 55.1027L25.0908 53.4711L25.9579 53.4711C26.8318 53.3709 28.2861 53.3055 29.9373 53.3055C31.5885 53.3055 33.0428 53.3709 33.9168 53.4711H34.7838L34.7838 55.1027C34.7838 55.3152 32.6145 56.1682 29.9373 56.1682Z" fill="url(#paint51_linear_766_2273)"/>
<path d="M29.9367 53.8571C32.6119 53.8571 34.7805 53.6844 34.7805 53.4715C34.7805 53.2585 32.6119 53.0858 29.9367 53.0858C27.2615 53.0858 25.0928 53.2585 25.0928 53.4715C25.0928 53.6844 27.2615 53.8571 29.9367 53.8571Z" fill="url(#paint52_linear_766_2273)"/>
<path d="M29.9369 53.8559C27.261 53.8559 25.0918 53.6835 25.0918 53.4708C25.0918 53.2582 27.261 53.0858 29.9369 53.0858C32.6127 53.0858 34.782 53.2582 34.782 53.4708C34.7431 53.37 34.2048 53.272 33.2973 53.2038C32.4054 53.1346 31.1696 53.0957 29.9369 53.0974C28.706 53.0989 27.4926 53.1386 26.6327 53.2083C25.7665 53.2773 25.272 53.3738 25.2808 53.4708C25.2712 53.5679 25.7664 53.6645 26.6324 53.7334C27.4926 53.8031 28.7058 53.8429 29.9369 53.8444C31.1699 53.8461 32.4056 53.8072 33.2977 53.7379C34.2051 53.6697 34.7434 53.5717 34.782 53.4708C34.782 53.6835 32.6128 53.8559 29.9369 53.8559Z" fill="url(#paint53_linear_766_2273)"/>
<path d="M55.4559 56.1682C52.7787 56.1682 50.6094 55.3152 50.6094 55.1027L50.6094 53.4711L51.4764 53.4711C52.3504 53.3709 53.8047 53.3055 55.4559 53.3055C57.1071 53.3055 58.5614 53.3709 59.4353 53.4711H60.3024L60.3024 55.1027C60.3024 55.3152 58.133 56.1682 55.4559 56.1682Z" fill="url(#paint54_linear_766_2273)"/>
<path d="M55.4557 53.8571C58.1309 53.8571 60.2996 53.6844 60.2996 53.4715C60.2996 53.2585 58.1309 53.0858 55.4557 53.0858C52.7805 53.0858 50.6118 53.2585 50.6118 53.4715C50.6118 53.6844 52.7805 53.8571 55.4557 53.8571Z" fill="url(#paint55_linear_766_2273)"/>
<path d="M55.4555 53.8559C52.7796 53.8559 50.6104 53.6835 50.6104 53.4708C50.6104 53.2582 52.7795 53.0858 55.4554 53.0858C58.1313 53.0858 60.3005 53.2582 60.3005 53.4708C60.2616 53.37 59.7233 53.272 58.8158 53.2038C57.924 53.1346 56.6882 53.0957 55.4554 53.0974C54.2246 53.0989 53.0112 53.1386 52.1512 53.2083C51.2851 53.2773 50.7905 53.3738 50.7993 53.4708C50.7897 53.5679 51.285 53.6645 52.151 53.7334C53.0112 53.8031 54.2243 53.8429 55.4554 53.8444C56.6884 53.8461 57.9241 53.8072 58.8163 53.7379C59.7237 53.6697 60.2619 53.5717 60.3005 53.4708C60.3005 53.6835 58.1313 53.8559 55.4555 53.8559Z" fill="url(#paint56_linear_766_2273)"/>
<path d="M80.9739 56.1682C78.2968 56.1682 76.1275 55.3152 76.1274 55.1027L76.1274 53.4711L76.9945 53.4711C77.8684 53.3709 79.3227 53.3055 80.9739 53.3055C82.6251 53.3055 84.0794 53.3709 84.9534 53.4711H85.8204L85.8204 55.1027C85.8204 55.3152 83.6511 56.1682 80.9739 56.1682Z" fill="url(#paint57_linear_766_2273)"/>
<path d="M80.9738 53.8571C83.649 53.8571 85.8177 53.6844 85.8177 53.4715C85.8177 53.2585 83.649 53.0858 80.9738 53.0858C78.2986 53.0858 76.1299 53.2585 76.1299 53.4715C76.1299 53.6844 78.2986 53.8571 80.9738 53.8571Z" fill="url(#paint58_linear_766_2273)"/>
<path d="M80.9735 53.8559C78.2977 53.8559 76.1284 53.6835 76.1284 53.4708C76.1284 53.2582 78.2976 53.0858 80.9735 53.0858C83.6494 53.0858 85.8186 53.2582 85.8186 53.4708C85.7797 53.37 85.2414 53.272 84.3339 53.2038C83.442 53.1346 82.2062 53.0957 80.9735 53.0974C79.7427 53.0989 78.5292 53.1386 77.6693 53.2083C76.8031 53.2773 76.3086 53.3738 76.3174 53.4708C76.3078 53.5679 76.803 53.6645 77.6691 53.7334C78.5292 53.8031 79.7424 53.8429 80.9735 53.8444C82.2065 53.8461 83.4422 53.8072 84.3343 53.7379C85.2417 53.6697 85.78 53.5717 85.8186 53.4708C85.8186 53.6835 83.6494 53.8559 80.9735 53.8559Z" fill="url(#paint59_linear_766_2273)"/>
<path d="M104.607 93.8237C104.943 93.3378 105.14 92.7493 105.14 92.1139V60.2254C105.14 56.6148 95.4915 54.8096 85.8394 54.8096H20.2798C18.6177 54.8096 17.2646 56.1588 17.2646 57.8247V92.1139C17.2646 92.7493 17.4625 93.3378 17.7982 93.8237H104.607Z" fill="url(#paint60_linear_766_2273)"/>
<path d="M57.0455 61.036H43.4508C42.4101 61.036 41.5664 61.8798 41.5664 62.9204V78.6432C41.5664 79.684 42.4101 80.5276 43.4508 80.5276H57.0455C58.0863 80.5276 58.9299 79.684 58.9299 78.6432V62.9204C58.9299 61.8798 58.0863 61.036 57.0455 61.036Z" fill="url(#paint61_linear_766_2273)"/>
<path d="M35.9034 61.036H22.3088C21.268 61.036 20.4243 61.8798 20.4243 62.9204V78.6432C20.4243 79.684 21.268 80.5276 22.3088 80.5276H35.9034C36.9442 80.5276 37.7879 79.684 37.7879 78.6432V62.9204C37.7879 61.8798 36.9442 61.036 35.9034 61.036Z" fill="url(#paint62_linear_766_2273)"/>
<path d="M78.1871 61.036H64.5924C63.5517 61.036 62.708 61.8798 62.708 62.9204V78.6432C62.708 79.684 63.5517 80.5276 64.5924 80.5276H78.1871C79.2279 80.5276 80.0716 79.684 80.0716 78.6432V62.9204C80.0716 61.8798 79.2279 61.036 78.1871 61.036Z" fill="url(#paint63_linear_766_2273)"/>
<path d="M99.3292 61.036H85.7345C84.6938 61.036 83.8501 61.8798 83.8501 62.9204V78.6432C83.8501 79.684 84.6938 80.5276 85.7345 80.5276H99.3292C100.37 80.5276 101.214 79.684 101.214 78.6432V62.9204C101.214 61.8798 100.37 61.036 99.3292 61.036Z" fill="url(#paint64_linear_766_2273)"/>
</g>
<defs>
<linearGradient id="paint0_linear_766_2273" x1="13.7657" y1="92.4877" x2="-2.23729" y2="92.4877" gradientUnits="userSpaceOnUse">
<stop stop-color="#727272"/>
<stop offset="0.853" stop-color="#313131"/>
<stop offset="1" stop-color="#262626"/>
</linearGradient>
<linearGradient id="paint1_linear_766_2273" x1="-2.97188" y1="97.5227" x2="11.9503" y2="82.6005" gradientUnits="userSpaceOnUse">
<stop stop-color="#727272"/>
<stop offset="0.853" stop-color="#313131"/>
<stop offset="1" stop-color="#262626"/>
</linearGradient>
<linearGradient id="paint2_linear_766_2273" x1="42.4434" y1="92.4877" x2="26.4429" y2="92.4877" gradientUnits="userSpaceOnUse">
<stop stop-color="#727272"/>
<stop offset="0.853" stop-color="#313131"/>
<stop offset="1" stop-color="#262626"/>
</linearGradient>
<linearGradient id="paint3_linear_766_2273" x1="25.7058" y1="97.5227" x2="40.628" y2="82.6005" gradientUnits="userSpaceOnUse">
<stop stop-color="#727272"/>
<stop offset="0.853" stop-color="#313131"/>
<stop offset="1" stop-color="#262626"/>
</linearGradient>
<linearGradient id="paint4_linear_766_2273" x1="71.1231" y1="92.4881" x2="55.1201" y2="92.4881" gradientUnits="userSpaceOnUse">
<stop stop-color="#727272"/>
<stop offset="0.853" stop-color="#313131"/>
<stop offset="1" stop-color="#262626"/>
</linearGradient>
<linearGradient id="paint5_linear_766_2273" x1="54.3835" y1="97.523" x2="69.3082" y2="82.6007" gradientUnits="userSpaceOnUse">
<stop stop-color="#727272"/>
<stop offset="0.853" stop-color="#313131"/>
<stop offset="1" stop-color="#262626"/>
</linearGradient>
<linearGradient id="paint6_linear_766_2273" x1="64.8595" y1="100.549" x2="18.226" y2="24.1231" gradientUnits="userSpaceOnUse">
<stop stop-color="#727272"/>
<stop offset="0.853" stop-color="#313131"/>
<stop offset="1" stop-color="#262626"/>
</linearGradient>
<linearGradient id="paint7_linear_766_2273" x1="72.3662" y1="95.9708" x2="25.7229" y2="19.5297" gradientUnits="userSpaceOnUse">
<stop offset="0.569" stop-color="#55BDFB"/>
<stop offset="1" stop-color="#0D81F3"/>
</linearGradient>
<linearGradient id="paint8_linear_766_2273" x1="48.7875" y1="50.1304" x2="48.7212" y2="56.281" gradientUnits="userSpaceOnUse">
<stop offset="0.569" stop-color="#55BDFB"/>
<stop offset="1" stop-color="#0D81F3"/>
</linearGradient>
<linearGradient id="paint9_linear_766_2273" x1="42.7941" y1="53.4739" x2="51.4993" y2="53.4739" gradientUnits="userSpaceOnUse">
<stop offset="0.569" stop-color="#55BDFB"/>
<stop offset="1" stop-color="#0D81F3"/>
</linearGradient>
<linearGradient id="paint10_linear_766_2273" x1="50.4703" y1="51.7417" x2="45.3489" y2="56.8656" gradientUnits="userSpaceOnUse">
<stop offset="0.569" stop-color="#55BDFB"/>
<stop offset="1" stop-color="#0D81F3"/>
</linearGradient>
<linearGradient id="paint11_linear_766_2273" x1="60.7524" y1="100.994" x2="60.5681" y2="83.6721" gradientUnits="userSpaceOnUse">
<stop offset="0.569" stop-color="#55BDFB"/>
<stop offset="1" stop-color="#0D81F3"/>
</linearGradient>
<linearGradient id="paint12_linear_766_2273" x1="53.8579" y1="84.1678" x2="53.8579" y2="69.1375" gradientUnits="userSpaceOnUse">
<stop stop-color="#727272"/>
<stop offset="0.853" stop-color="#313131"/>
<stop offset="1" stop-color="#262626"/>
</linearGradient>
<linearGradient id="paint13_linear_766_2273" x1="67.9349" y1="84.1678" x2="67.9349" y2="69.1375" gradientUnits="userSpaceOnUse">
<stop stop-color="#727272"/>
<stop offset="0.853" stop-color="#313131"/>
<stop offset="1" stop-color="#262626"/>
</linearGradient>
<linearGradient id="paint14_linear_766_2273" x1="50.3302" y1="86.1651" x2="50.3302" y2="91.6403" gradientUnits="userSpaceOnUse">
<stop stop-color="#727272"/>
<stop offset="0.853" stop-color="#313131"/>
<stop offset="1" stop-color="#262626"/>
</linearGradient>
<linearGradient id="paint15_linear_766_2273" x1="48.0952" y1="89.9066" x2="52.5633" y2="89.9066" gradientUnits="userSpaceOnUse">
<stop stop-color="#FEF328"/>
<stop offset="0.886" stop-color="#FF7F02"/>
</linearGradient>
<linearGradient id="paint16_linear_766_2273" x1="70.9484" y1="86.1651" x2="70.9484" y2="91.6403" gradientUnits="userSpaceOnUse">
<stop stop-color="#727272"/>
<stop offset="0.853" stop-color="#313131"/>
<stop offset="1" stop-color="#262626"/>
</linearGradient>
<linearGradient id="paint17_linear_766_2273" x1="68.7129" y1="89.9064" x2="73.181" y2="89.9064" gradientUnits="userSpaceOnUse">
<stop stop-color="#FEF328"/>
<stop offset="0.886" stop-color="#FF7F02"/>
</linearGradient>
<linearGradient id="paint18_linear_766_2273" x1="60.1776" y1="55.5577" x2="60.1776" y2="58.6159" gradientUnits="userSpaceOnUse">
<stop stop-color="#727272"/>
<stop offset="0.853" stop-color="#313131"/>
<stop offset="1" stop-color="#262626"/>
</linearGradient>
<linearGradient id="paint19_linear_766_2273" x1="60.5048" y1="57.6506" x2="60.5048" y2="59.0384" gradientUnits="userSpaceOnUse">
<stop stop-color="#DAE7ED"/>
<stop offset="0.713" stop-color="#A2B9BD"/>
<stop offset="1" stop-color="#8CA6AA"/>
</linearGradient>
<linearGradient id="paint20_linear_766_2273" x1="-3.75534" y1="50.1329" x2="-3.82412" y2="56.2786" gradientUnits="userSpaceOnUse">
<stop offset="0.569" stop-color="#55BDFB"/>
<stop offset="1" stop-color="#0D81F3"/>
</linearGradient>
<linearGradient id="paint21_linear_766_2273" x1="-9.75135" y1="53.4739" x2="-1.04365" y2="53.4739" gradientUnits="userSpaceOnUse">
<stop offset="0.569" stop-color="#55BDFB"/>
<stop offset="1" stop-color="#0D81F3"/>
</linearGradient>
<linearGradient id="paint22_linear_766_2273" x1="-2.07301" y1="51.7417" x2="-7.19692" y2="56.8656" gradientUnits="userSpaceOnUse">
<stop offset="0.569" stop-color="#55BDFB"/>
<stop offset="1" stop-color="#0D81F3"/>
</linearGradient>
<linearGradient id="paint23_linear_766_2273" x1="21.7631" y1="50.1329" x2="21.6943" y2="56.2786" gradientUnits="userSpaceOnUse">
<stop offset="0.569" stop-color="#55BDFB"/>
<stop offset="1" stop-color="#0D81F3"/>
</linearGradient>
<linearGradient id="paint24_linear_766_2273" x1="15.7672" y1="53.4739" x2="24.4749" y2="53.4739" gradientUnits="userSpaceOnUse">
<stop offset="0.569" stop-color="#55BDFB"/>
<stop offset="1" stop-color="#0D81F3"/>
</linearGradient>
<linearGradient id="paint25_linear_766_2273" x1="23.4454" y1="51.7417" x2="18.3215" y2="56.8656" gradientUnits="userSpaceOnUse">
<stop offset="0.569" stop-color="#55BDFB"/>
<stop offset="1" stop-color="#0D81F3"/>
</linearGradient>
<linearGradient id="paint26_linear_766_2273" x1="-61.9361" y1="75.2958" x2="47.2847" y2="73.6526" gradientUnits="userSpaceOnUse">
<stop offset="0.569" stop-color="#55BDFB"/>
<stop offset="1" stop-color="#0D81F3"/>
</linearGradient>
<linearGradient id="paint27_linear_766_2273" x1="12.1319" y1="83.5218" x2="12.1319" y2="71.5595" gradientUnits="userSpaceOnUse">
<stop stop-color="#727272"/>
<stop offset="0.853" stop-color="#313131"/>
<stop offset="1" stop-color="#262626"/>
</linearGradient>
<linearGradient id="paint28_linear_766_2273" x1="33.2737" y1="83.5218" x2="33.2737" y2="71.5595" gradientUnits="userSpaceOnUse">
<stop stop-color="#727272"/>
<stop offset="0.853" stop-color="#313131"/>
<stop offset="1" stop-color="#262626"/>
</linearGradient>
<linearGradient id="paint29_linear_766_2273" x1="44.3458" y1="92.4877" x2="28.3428" y2="92.4877" gradientUnits="userSpaceOnUse">
<stop stop-color="#727272"/>
<stop offset="0.853" stop-color="#313131"/>
<stop offset="1" stop-color="#262626"/>
</linearGradient>
<linearGradient id="paint30_linear_766_2273" x1="27.6082" y1="97.5227" x2="42.5304" y2="82.6005" gradientUnits="userSpaceOnUse">
<stop stop-color="#727272"/>
<stop offset="0.853" stop-color="#313131"/>
<stop offset="1" stop-color="#262626"/>
</linearGradient>
<linearGradient id="paint31_linear_766_2273" x1="73.0235" y1="92.4877" x2="57.0205" y2="92.4877" gradientUnits="userSpaceOnUse">
<stop stop-color="#727272"/>
<stop offset="0.853" stop-color="#313131"/>
<stop offset="1" stop-color="#262626"/>
</linearGradient>
<linearGradient id="paint32_linear_766_2273" x1="56.2859" y1="97.5227" x2="71.2081" y2="82.6005" gradientUnits="userSpaceOnUse">
<stop stop-color="#727272"/>
<stop offset="0.853" stop-color="#313131"/>
<stop offset="1" stop-color="#262626"/>
</linearGradient>
<linearGradient id="paint33_linear_766_2273" x1="101.701" y1="92.4877" x2="85.7007" y2="92.4877" gradientUnits="userSpaceOnUse">
<stop stop-color="#727272"/>
<stop offset="0.853" stop-color="#313131"/>
<stop offset="1" stop-color="#262626"/>
</linearGradient>
<linearGradient id="paint34_linear_766_2273" x1="84.9636" y1="97.5227" x2="99.8858" y2="82.6005" gradientUnits="userSpaceOnUse">
<stop stop-color="#727272"/>
<stop offset="0.853" stop-color="#313131"/>
<stop offset="1" stop-color="#262626"/>
</linearGradient>
<linearGradient id="paint35_linear_766_2273" x1="130.381" y1="92.4881" x2="114.378" y2="92.4881" gradientUnits="userSpaceOnUse">
<stop stop-color="#727272"/>
<stop offset="0.853" stop-color="#313131"/>
<stop offset="1" stop-color="#262626"/>
</linearGradient>
<linearGradient id="paint36_linear_766_2273" x1="113.641" y1="97.523" x2="128.566" y2="82.6007" gradientUnits="userSpaceOnUse">
<stop stop-color="#727272"/>
<stop offset="0.853" stop-color="#313131"/>
<stop offset="1" stop-color="#262626"/>
</linearGradient>
<linearGradient id="paint37_linear_766_2273" x1="124.118" y1="100.549" x2="77.4843" y2="24.1231" gradientUnits="userSpaceOnUse">
<stop stop-color="#727272"/>
<stop offset="0.853" stop-color="#313131"/>
<stop offset="1" stop-color="#262626"/>
</linearGradient>
<linearGradient id="paint38_linear_766_2273" x1="131.625" y1="95.9708" x2="84.9813" y2="19.5297" gradientUnits="userSpaceOnUse">
<stop offset="0.569" stop-color="#55BDFB"/>
<stop offset="1" stop-color="#0D81F3"/>
</linearGradient>
<linearGradient id="paint39_linear_766_2273" x1="108.046" y1="50.1304" x2="107.98" y2="56.281" gradientUnits="userSpaceOnUse">
<stop offset="0.569" stop-color="#55BDFB"/>
<stop offset="1" stop-color="#0D81F3"/>
</linearGradient>
<linearGradient id="paint40_linear_766_2273" x1="102.052" y1="53.4739" x2="110.758" y2="53.4739" gradientUnits="userSpaceOnUse">
<stop offset="0.569" stop-color="#55BDFB"/>
<stop offset="1" stop-color="#0D81F3"/>
</linearGradient>
<linearGradient id="paint41_linear_766_2273" x1="109.729" y1="51.7417" x2="104.607" y2="56.8656" gradientUnits="userSpaceOnUse">
<stop offset="0.569" stop-color="#55BDFB"/>
<stop offset="1" stop-color="#0D81F3"/>
</linearGradient>
<linearGradient id="paint42_linear_766_2273" x1="120.011" y1="100.994" x2="119.826" y2="83.6721" gradientUnits="userSpaceOnUse">
<stop offset="0.569" stop-color="#55BDFB"/>
<stop offset="1" stop-color="#0D81F3"/>
</linearGradient>
<linearGradient id="paint43_linear_766_2273" x1="113.116" y1="84.1678" x2="113.116" y2="69.1375" gradientUnits="userSpaceOnUse">
<stop stop-color="#727272"/>
<stop offset="0.853" stop-color="#313131"/>
<stop offset="1" stop-color="#262626"/>
</linearGradient>
<linearGradient id="paint44_linear_766_2273" x1="127.193" y1="84.1678" x2="127.193" y2="69.1375" gradientUnits="userSpaceOnUse">
<stop stop-color="#727272"/>
<stop offset="0.853" stop-color="#313131"/>
<stop offset="1" stop-color="#262626"/>
</linearGradient>
<linearGradient id="paint45_linear_766_2273" x1="109.589" y1="86.1651" x2="109.589" y2="91.6403" gradientUnits="userSpaceOnUse">
<stop stop-color="#727272"/>
<stop offset="0.853" stop-color="#313131"/>
<stop offset="1" stop-color="#262626"/>
</linearGradient>
<linearGradient id="paint46_linear_766_2273" x1="107.353" y1="89.9066" x2="111.821" y2="89.9066" gradientUnits="userSpaceOnUse">
<stop stop-color="#FEF328"/>
<stop offset="0.886" stop-color="#FF7F02"/>
</linearGradient>
<linearGradient id="paint47_linear_766_2273" x1="130.207" y1="86.1651" x2="130.207" y2="91.6403" gradientUnits="userSpaceOnUse">
<stop stop-color="#727272"/>
<stop offset="0.853" stop-color="#313131"/>
<stop offset="1" stop-color="#262626"/>
</linearGradient>
<linearGradient id="paint48_linear_766_2273" x1="127.972" y1="89.9064" x2="132.44" y2="89.9064" gradientUnits="userSpaceOnUse">
<stop stop-color="#FEF328"/>
<stop offset="0.886" stop-color="#FF7F02"/>
</linearGradient>
<linearGradient id="paint49_linear_766_2273" x1="119.436" y1="55.5577" x2="119.436" y2="58.6159" gradientUnits="userSpaceOnUse">
<stop stop-color="#727272"/>
<stop offset="0.853" stop-color="#313131"/>
<stop offset="1" stop-color="#262626"/>
</linearGradient>
<linearGradient id="paint50_linear_766_2273" x1="119.763" y1="57.6506" x2="119.763" y2="59.0384" gradientUnits="userSpaceOnUse">
<stop stop-color="#DAE7ED"/>
<stop offset="0.713" stop-color="#A2B9BD"/>
<stop offset="1" stop-color="#8CA6AA"/>
</linearGradient>
<linearGradient id="paint51_linear_766_2273" x1="29.9836" y1="50.1329" x2="29.9148" y2="56.2786" gradientUnits="userSpaceOnUse">
<stop offset="0.569" stop-color="#55BDFB"/>
<stop offset="1" stop-color="#0D81F3"/>
</linearGradient>
<linearGradient id="paint52_linear_766_2273" x1="23.9874" y1="53.4739" x2="32.6951" y2="53.4739" gradientUnits="userSpaceOnUse">
<stop offset="0.569" stop-color="#55BDFB"/>
<stop offset="1" stop-color="#0D81F3"/>
</linearGradient>
<linearGradient id="paint53_linear_766_2273" x1="31.6659" y1="51.7417" x2="26.542" y2="56.8656" gradientUnits="userSpaceOnUse">
<stop offset="0.569" stop-color="#55BDFB"/>
<stop offset="1" stop-color="#0D81F3"/>
</linearGradient>
<linearGradient id="paint54_linear_766_2273" x1="55.5025" y1="50.1329" x2="55.4337" y2="56.2786" gradientUnits="userSpaceOnUse">
<stop offset="0.569" stop-color="#55BDFB"/>
<stop offset="1" stop-color="#0D81F3"/>
</linearGradient>
<linearGradient id="paint55_linear_766_2273" x1="49.5065" y1="53.4739" x2="58.2142" y2="53.4739" gradientUnits="userSpaceOnUse">
<stop offset="0.569" stop-color="#55BDFB"/>
<stop offset="1" stop-color="#0D81F3"/>
</linearGradient>
<linearGradient id="paint56_linear_766_2273" x1="57.1848" y1="51.7417" x2="52.0609" y2="56.8656" gradientUnits="userSpaceOnUse">
<stop offset="0.569" stop-color="#55BDFB"/>
<stop offset="1" stop-color="#0D81F3"/>
</linearGradient>
<linearGradient id="paint57_linear_766_2273" x1="81.0209" y1="50.1329" x2="80.9521" y2="56.2786" gradientUnits="userSpaceOnUse">
<stop offset="0.569" stop-color="#55BDFB"/>
<stop offset="1" stop-color="#0D81F3"/>
</linearGradient>
<linearGradient id="paint58_linear_766_2273" x1="75.0245" y1="53.4739" x2="83.7322" y2="53.4739" gradientUnits="userSpaceOnUse">
<stop offset="0.569" stop-color="#55BDFB"/>
<stop offset="1" stop-color="#0D81F3"/>
</linearGradient>
<linearGradient id="paint59_linear_766_2273" x1="82.7032" y1="51.7417" x2="77.5793" y2="56.8656" gradientUnits="userSpaceOnUse">
<stop offset="0.569" stop-color="#55BDFB"/>
<stop offset="1" stop-color="#0D81F3"/>
</linearGradient>
<linearGradient id="paint60_linear_766_2273" x1="-2.67831" y1="75.2958" x2="106.542" y2="73.6526" gradientUnits="userSpaceOnUse">
<stop offset="0.569" stop-color="#55BDFB"/>
<stop offset="1" stop-color="#0D81F3"/>
</linearGradient>
<linearGradient id="paint61_linear_766_2273" x1="50.2484" y1="83.5218" x2="50.2484" y2="71.5595" gradientUnits="userSpaceOnUse">
<stop stop-color="#727272"/>
<stop offset="0.853" stop-color="#313131"/>
<stop offset="1" stop-color="#262626"/>
</linearGradient>
<linearGradient id="paint62_linear_766_2273" x1="29.1066" y1="83.5218" x2="29.1066" y2="71.5595" gradientUnits="userSpaceOnUse">
<stop stop-color="#727272"/>
<stop offset="0.853" stop-color="#313131"/>
<stop offset="1" stop-color="#262626"/>
</linearGradient>
<linearGradient id="paint63_linear_766_2273" x1="71.3897" y1="83.5218" x2="71.3897" y2="71.5595" gradientUnits="userSpaceOnUse">
<stop stop-color="#727272"/>
<stop offset="0.853" stop-color="#313131"/>
<stop offset="1" stop-color="#262626"/>
</linearGradient>
<linearGradient id="paint64_linear_766_2273" x1="92.5315" y1="83.5218" x2="92.5315" y2="71.5595" gradientUnits="userSpaceOnUse">
<stop stop-color="#727272"/>
<stop offset="0.853" stop-color="#313131"/>
<stop offset="1" stop-color="#262626"/>
</linearGradient>
</defs>
</svg>
