<svg width="153" height="153" viewBox="0 0 153 153" fill="none" xmlns="http://www.w3.org/2000/svg">
<mask id="mask0_766_2450" style="mask-type:alpha" maskUnits="userSpaceOnUse" x="0" y="0" width="153" height="153">
<rect x="0.267578" width="152.732" height="152.732" rx="20.4693" fill="white"/>
</mask>
<g mask="url(#mask0_766_2450)">
<rect x="0.267578" width="152.732" height="152.732" rx="20.4693" fill="white"/>
</g>
<path d="M120.407 85.077L90.0951 102.672C88.8455 103.397 86.8099 103.397 85.5402 102.672L34.4489 73.1655C33.8039 72.8033 33.4814 72.3191 33.4814 71.8359L33.4412 85.6616C33.4412 86.2255 33.8443 86.9311 34.328 87.2135L85.52 110.068C86.7696 110.814 88.8052 110.814 90.0749 110.068L120.367 92.4735C120.992 92.1104 121.314 91.6272 121.314 91.1637L121.355 83.7268C121.355 84.2307 121.032 84.6942 120.407 85.077Z" fill="#373F51"/>
<path d="M120.39 82.4145C121.655 83.1446 121.655 84.3312 120.399 85.0613L90.0963 102.671C88.8397 103.401 86.7982 103.401 85.5335 102.671L34.4403 73.1724C33.1756 72.4422 33.1619 71.2558 34.4186 70.5255L64.7208 52.9157C65.9771 52.1857 68.0325 52.1856 69.2972 52.9158L120.39 82.4145Z" fill="#4C5671"/>
<path d="M93.7819 68.2072C94.2485 68.4766 94.2508 68.9184 93.7874 69.1878L90.0404 71.3652C89.5766 71.6348 88.8143 71.6347 88.3477 71.3653L86.3816 70.2302C85.915 69.9607 85.9122 69.5192 86.3761 69.2496L90.123 67.0722C90.5865 66.8028 91.3492 66.8027 91.8158 67.0721L93.7819 68.2072ZM86.6525 72.3504C87.1192 72.6198 87.1293 73.057 86.658 73.3309L82.9189 75.5038C82.4551 75.7734 81.6928 75.7732 81.2262 75.5038L79.2601 74.3687C78.7935 74.0993 78.7907 73.6578 79.2546 73.3882L82.9937 71.2153C83.465 70.9414 84.2199 70.9458 84.6865 71.2152L86.6525 72.3504ZM79.5315 76.4887C79.9981 76.7581 80.0004 77.1999 79.5369 77.4692L75.7974 79.6424C75.3261 79.9162 74.5713 79.9118 74.1047 79.6424L72.1386 78.5073C71.672 78.2379 71.6618 77.8006 72.1331 77.5268L75.8726 75.3536C76.3361 75.0843 77.0988 75.0842 77.5654 75.3536L79.5315 76.4887ZM72.41 80.6272C72.8766 80.8966 72.8789 81.3384 72.4154 81.6078L68.676 83.7809C68.2046 84.0548 67.4424 84.0547 66.9757 83.7852L65.0097 82.6502C64.5431 82.3807 64.5403 81.9392 65.0116 81.6653L68.7511 79.4922C69.2146 79.2228 69.9773 79.2227 70.4439 79.4921L72.41 80.6272ZM99.5652 71.5463C100.032 71.8157 100.034 72.2574 99.5707 72.5268L95.8238 74.7042C95.3599 74.9738 94.5977 74.9737 94.131 74.7043L92.165 73.5692C91.6983 73.2998 91.6956 72.8582 92.1595 72.5886L95.9064 70.4112C96.3698 70.1418 97.1325 70.1417 97.5992 70.4112L99.5652 71.5463ZM92.4359 75.6894C92.9025 75.9588 92.9127 76.396 92.4414 76.6699L88.7023 78.8428C88.2384 79.1124 87.4762 79.1123 87.0095 78.8428L85.0435 77.7077C84.5768 77.4383 84.5741 76.9968 85.038 76.7272L88.777 74.5543C89.2484 74.2804 90.0032 74.2849 90.4699 74.5543L92.4359 75.6894ZM85.3148 79.8277C85.7815 80.0971 85.7838 80.5389 85.3203 80.8082L81.5808 82.9814C81.1095 83.2553 80.3547 83.2508 79.888 82.9814L77.922 81.8463C77.4553 81.5769 77.4452 81.1397 77.9165 80.8658L81.656 78.6926C82.1194 78.4233 82.8821 78.4232 83.3488 78.6926L85.3148 79.8277ZM78.1933 83.9662C78.66 84.2357 78.6623 84.6774 78.1988 84.9468L74.4593 87.1199C73.988 87.3938 73.2257 87.3937 72.7591 87.1243L70.7931 85.9892C70.3264 85.7198 70.3237 85.2782 70.795 85.0043L74.5345 82.8312C74.9979 82.5618 75.7606 82.5617 76.2273 82.8312L78.1933 83.9662ZM105.349 74.8853C105.815 75.1547 105.818 75.5965 105.354 75.8658L101.607 78.0433C101.143 78.3129 100.381 78.3127 99.9144 78.0433L97.9483 76.9082C97.4817 76.6388 97.4789 76.1973 97.9428 75.9277L101.69 73.7502C102.153 73.4809 102.916 73.4808 103.383 73.7502L105.349 74.8853ZM98.2192 79.0284C98.6859 79.2978 98.696 79.735 98.2247 80.0089L94.4857 82.1818C94.0218 82.4514 93.2595 82.4513 92.7929 82.1819L90.8268 81.0468C90.3602 80.7773 90.3575 80.3358 90.8213 80.0662L94.5604 77.8933C95.0317 77.6194 95.7866 77.6239 96.2532 77.8933L98.2192 79.0284ZM91.0982 83.1667C91.5648 83.4361 91.5671 83.8779 91.1037 84.1472L87.3642 86.3204C86.8929 86.5943 86.138 86.5898 85.6714 86.3204L83.7053 85.1853C83.2387 84.9159 83.2285 84.4787 83.6998 84.2048L87.4393 82.0316C87.9028 81.7623 88.6655 81.7622 89.1321 82.0316L91.0982 83.1667ZM83.9767 87.3053C84.4433 87.5747 84.4456 88.0165 83.9822 88.2858L80.2427 90.459C79.7714 90.7329 79.0091 90.7327 78.5425 90.4633L76.5764 89.3282C76.1098 89.0588 76.107 88.6172 76.5783 88.3434L80.3178 86.1702C80.7813 85.9009 81.544 85.9008 82.0106 86.1702L83.9767 87.3053ZM111.132 78.2243C111.599 78.4937 111.601 78.9355 111.137 79.2048L107.39 81.3823C106.927 81.6519 106.164 81.6517 105.698 81.3823L103.732 80.2472C103.265 79.9778 103.262 79.5363 103.726 79.2667L107.473 77.0892C107.937 76.8199 108.699 76.8198 109.166 77.0892L111.132 78.2243ZM104.003 82.3674C104.469 82.6368 104.479 83.074 104.008 83.3479L100.269 85.5208C99.8051 85.7904 99.0429 85.7903 98.5762 85.5209L96.6102 84.3858C96.1435 84.1164 96.1408 83.6748 96.6047 83.4053L100.344 81.2323C100.815 80.9584 101.57 80.9629 102.037 81.2323L104.003 82.3674ZM96.8815 86.5057C97.3482 86.7752 97.3505 87.2169 96.887 87.4863L93.1475 89.6594C92.6762 89.9333 91.9214 89.9289 91.4547 89.6594L89.4887 88.5243C89.022 88.2549 89.0119 87.8177 89.4832 87.5438L93.2227 85.3707C93.6861 85.1013 94.4488 85.1012 94.9155 85.3706L96.8815 86.5057Z" fill="#9DA9C1"/>
<path d="M85.0486 79.1688C84.7922 79.0405 84.696 78.8496 84.696 78.6884V77.2146C84.696 77.4071 84.8243 77.5666 85.0486 77.6949L87.0031 78.8496C87.4836 79.1062 88.2528 79.1062 88.7013 78.8496L92.4504 76.6701C92.6747 76.5418 92.8028 76.3494 92.8028 76.1898L92.7707 77.6636C92.7707 77.8232 92.6747 77.9844 92.4504 78.144L88.7013 80.3234C88.2208 80.58 87.4836 80.58 87.0031 80.3234L85.0486 79.1688ZM86.0098 71.191L86.0419 69.7485C86.0419 69.9096 86.1379 70.1005 86.3943 70.2288L88.3488 71.3506C88.8296 71.64 89.5665 71.64 90.0472 71.3506L93.7961 69.1727C94.0204 69.0444 94.1485 68.8833 94.1485 68.6924L94.1164 70.1662C94.1164 70.3571 94.0204 70.5182 93.7961 70.6465L90.0472 72.8244C89.5665 73.1139 88.7975 73.1139 88.3488 72.8244L86.3622 71.7026C86.1379 71.5759 86.0098 71.3834 86.0098 71.191ZM90.1111 91.1534V92.5959C90.1111 92.7868 89.983 92.948 89.7587 93.0763L86.0098 95.2541C85.5612 95.5436 84.7922 95.5436 84.3115 95.2541L82.3569 94.1323C82.1326 94.0056 82.0045 93.8132 82.0045 93.652V92.1782C82.0045 92.3393 82.1326 92.5302 82.3569 92.6585L84.3115 93.8132C84.7922 94.0698 85.5612 94.0698 86.0098 93.8132L89.7587 91.6337C89.983 91.5054 90.1111 91.313 90.1111 91.1534ZM71.783 79.4895V78.0157C71.783 78.2081 71.9111 78.3677 72.1354 78.496L74.0899 79.6507C74.5706 79.9072 75.3396 79.9072 75.7883 79.6507L79.5372 77.4712C79.7615 77.3429 79.8896 77.1505 79.8896 76.9909V78.4318C79.8896 78.6243 79.7615 78.7854 79.5372 78.945L75.7883 81.0916C75.3075 81.3811 74.5706 81.3811 74.0899 81.0916L72.1354 79.9698C71.9111 79.8415 71.783 79.6507 71.783 79.4895ZM72.4238 83.0786L68.6747 85.2581C68.1942 85.5147 67.4252 85.5147 66.9766 85.2581L64.99 84.1034C64.7657 83.9751 64.6694 83.8155 64.6694 83.6231V82.1493C64.6694 82.3417 64.7657 82.5013 65.022 82.6625L66.9766 83.7843C67.4571 84.0393 68.1942 84.0393 68.6747 83.7843L72.4238 81.6048C72.6482 81.4765 72.7763 81.2841 72.7763 81.1245L72.7442 82.5983C72.7442 82.7579 72.6482 82.9503 72.4238 83.0786ZM78.1914 86.4112L74.4425 88.5906C73.9939 88.8456 73.2249 88.8456 72.7442 88.5906L70.7897 87.4688C70.5653 87.3077 70.4372 87.1481 70.4372 86.9556V85.4818C70.4372 85.6743 70.5653 85.8667 70.7897 85.995L72.7442 87.1168C73.2249 87.4047 73.9939 87.4047 74.4744 87.1168L78.1914 84.9373C78.4158 84.809 78.5439 84.6479 78.5439 84.457V85.9308C78.5439 86.0904 78.4158 86.2829 78.1914 86.4112ZM78.8963 75.3246V73.8821C78.8963 74.0432 79.0246 74.2341 79.2489 74.3624L81.2355 75.5171C81.684 75.7736 82.4531 75.7736 82.9337 75.5171L86.6507 73.3376C86.9069 73.2093 87.0031 73.0169 87.0031 72.8573V74.2998C87.0031 74.4907 86.875 74.6518 86.6507 74.8114L82.9016 76.958C82.4531 77.2475 81.684 77.2475 81.2355 76.958L79.2489 75.8362C79.0246 75.7079 78.8963 75.5171 78.8963 75.3246ZM83.3502 86.1546V84.6808C83.3502 84.8732 83.4783 85.0656 83.7027 85.1939L85.6574 86.3157C86.1379 86.6036 86.9069 86.6036 87.3555 86.3157L91.1045 84.1363C91.3288 84.008 91.4571 83.8468 91.4571 83.656V85.1298C91.4571 85.2894 91.3288 85.4818 91.1045 85.6101L87.3555 87.7896C86.875 88.0446 86.1379 88.0446 85.6574 87.7896L83.7027 86.6349C83.4783 86.5066 83.3502 86.347 83.3502 86.1546ZM81.5879 82.9832L85.3048 80.8037C85.5612 80.6754 85.6574 80.483 85.6574 80.3234V81.7972C85.6574 81.9568 85.5612 82.1493 85.3048 82.2776L81.5879 84.457C81.1072 84.7136 80.3382 84.7136 79.8896 84.457L77.903 83.3024C77.6787 83.1741 77.5506 82.9832 77.5506 82.822L77.5826 81.3482C77.5826 81.5407 77.6787 81.7002 77.9351 81.8614L79.8896 82.9832C80.3703 83.2382 81.1072 83.2711 81.5879 82.9832ZM83.9911 89.7437L80.2422 91.9232C79.7615 92.211 78.9925 92.211 78.5439 91.9232L76.5573 90.8014C76.3329 90.6731 76.2048 90.4806 76.2369 90.2882V88.8456C76.2369 89.0068 76.3329 89.1992 76.5893 89.326L78.5439 90.4478C79.0246 90.7372 79.7615 90.7372 80.2422 90.4478L83.9911 88.3012C84.2154 88.1416 84.3115 87.9804 84.3435 87.7896L84.3115 89.2634C84.3115 89.4543 84.2154 89.6154 83.9911 89.7437ZM99.9161 78.0485C100.365 78.3051 101.134 78.3051 101.614 78.0485L105.363 75.8691C105.588 75.7408 105.684 75.5483 105.716 75.3888L105.684 76.8297C105.684 77.0222 105.588 77.1833 105.363 77.3429L101.614 79.5224C101.134 79.7789 100.365 79.7789 99.9161 79.5224L97.9295 78.3677C97.7052 78.2394 97.5771 78.0485 97.5771 77.8874L97.6092 76.4136C97.6092 76.606 97.7052 76.7656 97.9616 76.8939L99.9161 78.0485ZM94.1164 74.716C94.5972 74.9726 95.3662 74.9726 95.8148 74.716L99.5637 72.5365C99.788 72.4082 99.9161 72.2158 99.9161 72.0562V73.4988C99.9161 73.6896 99.788 73.8508 99.5637 73.9791L95.8148 76.157C95.3662 76.4464 94.5972 76.4464 94.1164 76.157L92.1619 75.0352C91.9376 74.9069 91.8095 74.716 91.8095 74.5548V73.081C91.8095 73.2422 91.9376 73.433 92.1619 73.5613L94.1164 74.716ZM104.37 82.8549L104.338 84.3287C104.338 84.4883 104.242 84.6808 104.018 84.809L100.269 86.9885C99.788 87.2435 99.0511 87.2435 98.5704 86.9885L96.6159 85.8667C96.3595 85.7055 96.2634 85.546 96.2634 85.3535V83.8797C96.2634 84.0721 96.3595 84.2646 96.6159 84.3929L98.5704 85.5147C99.0511 85.8026 99.8201 85.8026 100.269 85.5147L104.018 83.3352C104.242 83.2069 104.37 83.0458 104.37 82.8549ZM92.8028 83.656L90.8162 82.5013C90.5919 82.373 90.4638 82.1821 90.4638 82.021V80.5472C90.4638 80.7396 90.5919 80.8992 90.8162 81.0603L92.8028 82.1821C93.2514 82.4372 94.0204 82.4372 94.5009 82.1821L98.218 80.0027C98.4423 79.8744 98.5704 79.6819 98.5704 79.5224V80.9962C98.5704 81.1558 98.4423 81.3482 98.218 81.4765L94.4691 83.656C94.0204 83.9125 93.2514 83.9125 92.8028 83.656ZM97.2247 86.9885V88.4623C97.2247 88.6532 97.1284 88.8144 96.8722 88.9426L93.1552 91.1221C92.6747 91.41 91.9055 91.41 91.4571 91.1221L89.4705 90.0003C89.2461 89.8391 89.1178 89.6796 89.1178 89.4871L89.1499 88.1087C89.1499 88.237 89.2782 88.3982 89.5023 88.5249L91.4571 89.6467C91.9055 89.9362 92.6747 89.9362 93.1552 89.6467L96.8722 87.5001C97.1284 87.3405 97.2247 87.1794 97.2247 86.9885ZM111.484 78.7213V80.1951C111.484 80.3547 111.355 80.5472 111.131 80.6754L107.382 82.8549C106.933 83.1115 106.164 83.1115 105.684 82.8549L103.729 81.7002C103.505 81.5719 103.377 81.4124 103.377 81.2199V79.7461C103.377 79.9385 103.505 80.0981 103.729 80.2593L105.684 81.3811C106.164 81.6361 106.933 81.6361 107.382 81.3811L111.131 79.2016C111.355 79.0733 111.484 78.8809 111.484 78.7213Z" fill="#272E3A"/>
<path d="M89.7598 90.6447C90.2265 90.9142 90.2288 91.3559 89.7653 91.6253L86.0184 93.8027C85.5545 94.0723 84.7923 94.0722 84.3256 93.8028L82.3596 92.6677C81.8929 92.3982 81.8902 91.9567 82.3615 91.6828L86.101 89.5097C86.5644 89.2403 87.3271 89.2402 87.7938 89.5096L89.7598 90.6447Z" fill="#9DA9C1"/>
<path d="M117.251 82.0527V83.5266C117.251 83.6861 117.155 83.8786 116.931 84.0069L113.182 86.1863C112.701 86.4414 111.932 86.4414 111.484 86.1863L109.497 85.0645C109.273 84.9034 109.145 84.7438 109.145 84.5514L109.177 83.0775C109.177 83.27 109.273 83.4624 109.529 83.5907L111.484 84.7125C111.932 85.0004 112.701 85.0004 113.182 84.7125L116.931 82.5331C117.155 82.4048 117.251 82.2436 117.251 82.0527Z" fill="#D3374E"/>
<path d="M116.915 81.5627C117.382 81.8321 117.384 82.2739 116.921 82.5432L113.174 84.7207C112.71 84.9903 111.948 84.9901 111.481 84.7207L109.515 83.5856C109.048 83.3162 109.046 82.8747 109.51 82.6051L113.256 80.4276C113.72 80.1583 114.483 80.1582 114.949 80.4276L116.915 81.5627Z" fill="#FE91AB"/>
<path d="M110.138 86.1866V87.6605C110.138 87.8514 110.01 88.0125 109.785 88.1408L106.037 90.3202C105.588 90.6081 104.819 90.6081 104.37 90.3202L102.384 89.1984C102.159 89.0373 102.031 88.8777 102.031 88.6853V87.2427C102.031 87.4039 102.159 87.5963 102.384 87.7231L104.37 88.8449C104.819 89.1343 105.588 89.1343 106.037 88.8449L109.785 86.6983C110.01 86.5387 110.138 86.3775 110.138 86.1866Z" fill="#3A53D0"/>
<path d="M109.786 85.7061C110.253 85.9756 110.263 86.4128 109.791 86.6867L106.052 88.8596C105.588 89.1292 104.826 89.129 104.359 88.8596L102.393 87.7245C101.927 87.4551 101.924 87.0136 102.388 86.744L106.127 84.5711C106.598 84.2972 107.353 84.3016 107.82 84.571L109.786 85.7061Z" fill="#7BB1FF"/>
<path d="M102.671 90.8245L98.931 92.9977C98.4597 93.2715 97.705 93.2683 97.2381 92.9977L95.2723 91.8633C95.0364 91.7272 94.9171 91.5473 94.9177 91.3689L94.9136 92.8334C94.913 93.0133 95.0323 93.1917 95.2679 93.3278L97.234 94.4637C97.7007 94.7328 98.4556 94.7375 98.9269 94.4637L102.666 92.2905C102.897 92.1559 103.012 91.9791 103.012 91.8039L103.016 90.3379C103.016 90.5147 102.901 90.6915 102.671 90.8245Z" fill="#EFA143"/>
<path d="M102.665 89.8439C103.131 90.1134 103.134 90.5551 102.67 90.8245L98.9306 92.9976C98.4593 93.2715 97.7044 93.2671 97.2378 92.9976L95.2717 91.8626C94.8051 91.5931 94.7949 91.1559 95.2662 90.882L99.0057 88.7089C99.4692 88.4395 100.232 88.4394 100.699 88.7089L102.665 89.8439Z" fill="#FFDD94"/>
<path d="M95.5488 94.9637L91.8018 97.1401C91.3379 97.4107 90.5758 97.4107 90.1091 97.1401L88.1431 96.0057C87.9082 95.8696 87.7908 95.6913 87.7914 95.5113L87.7871 96.9773C87.7867 97.1557 87.9041 97.3356 88.1389 97.4702L90.1048 98.6061C90.5717 98.8752 91.3338 98.8752 91.7977 98.6061L95.5447 96.4282C95.7748 96.2936 95.8902 96.1184 95.8906 95.9416L95.8949 94.4756C95.8943 94.6524 95.7791 94.8292 95.5488 94.9637Z" fill="#47A047"/>
<path d="M95.5432 93.9826C96.0099 94.252 96.0122 94.6938 95.5487 94.9632L91.8018 97.1406C91.3379 97.4102 90.5756 97.4101 90.109 97.1406L88.143 96.0055C87.6763 95.7361 87.6736 95.2946 88.1375 95.025L91.8844 92.8476C92.3479 92.5782 93.1105 92.5781 93.5772 92.8475L95.5432 93.9826Z" fill="#96D696"/>
<path d="M36.8157 71.9159L38.5006 72.8894V70.9364L36.8157 71.9159Z" fill="#272E3A"/>
<path d="M88.7413 99.9426L38.5005 70.9364V72.8894L87.0564 100.922L88.7413 99.9426Z" fill="#373F51"/>
<path d="M85.9968 65.4401C85.9968 65.8552 85.7982 66.2157 85.4373 66.4149L60.6918 80.7996C60.385 80.9802 60.024 81.071 59.6811 81.071C59.3201 81.071 58.9771 80.9802 58.6703 80.7996L43.4165 71.9958C43.0735 71.7975 42.8569 71.4361 42.8569 71.021C42.8569 70.6059 43.0554 70.2455 43.4165 70.0472L68.1619 55.6616C68.7755 55.3003 69.5697 55.3003 70.1834 55.6616L85.4373 64.4654C85.7801 64.6637 85.9968 65.0427 85.9968 65.4401Z" fill="white"/>
<path d="M69.8539 56.249C69.6441 56.1283 69.4097 56.0684 69.177 56.0684C68.9408 56.0684 68.7064 56.1292 68.4967 56.2508L43.7566 70.6302C43.5539 70.7474 43.531 70.9422 43.531 71.0206C43.5328 71.099 43.5539 71.2929 43.7566 71.411L59.0021 80.2122C59.4199 80.4537 59.9398 80.4528 60.3611 80.2095L85.0976 65.8328C85.3021 65.7147 85.3232 65.5208 85.3232 65.4432C85.3232 65.3648 85.3021 65.17 85.0976 65.0528L69.8539 56.249Z" fill="url(#paint0_linear_766_2450)"/>
<defs>
<linearGradient id="paint0_linear_766_2450" x1="64.4263" y1="84.1291" x2="64.4263" y2="69.2009" gradientUnits="userSpaceOnUse">
<stop stop-color="#727272"/>
<stop offset="0.853" stop-color="#313131"/>
<stop offset="1" stop-color="#262626"/>
</linearGradient>
</defs>
</svg>
