<svg width="60" height="60" viewBox="0 0 60 60" fill="none" xmlns="http://www.w3.org/2000/svg">
<path fill-rule="evenodd" clip-rule="evenodd" d="M55 30C55 43.8071 43.8071 55 30 55C16.1929 55 5 43.8071 5 30C5 16.1929 16.1929 5 30 5C43.8071 5 55 16.1929 55 30ZM40.0758 22.4242C40.8081 23.1564 40.8081 24.3436 40.0758 25.0758L27.5758 37.5758C26.8436 38.3081 25.6564 38.3081 24.9242 37.5758L19.9242 32.5758C19.1919 31.8436 19.1919 30.6564 19.9242 29.9242C20.6564 29.1919 21.8436 29.1919 22.5758 29.9242L26.25 33.5983L31.8371 28.0113L37.4242 22.4242C38.1564 21.6919 39.3436 21.6919 40.0758 22.4242Z" fill="#C4DD32"/>
</svg>
